<svg xmlns="http://www.w3.org/2000/svg" xmlns:xlink="http://www.w3.org/1999/xlink" width="500" zoomAndPan="magnify" viewBox="0 0 375 374.999991" height="500" preserveAspectRatio="xMidYMid meet" version="1.2"><defs><clipPath id="95e8c141ea"><path d="M 129 92.386719 L 243 92.386719 L 243 206 L 129 206 Z M 129 92.386719 "/></clipPath><clipPath id="056160a364"><path d="M 147.648438 92.257812 L 223.867188 92.257812 C 224.460938 92.257812 225.054688 92.289062 225.648438 92.34375 C 226.242188 92.402344 226.828125 92.492188 227.414062 92.609375 C 228 92.722656 228.574219 92.867188 229.144531 93.042969 C 229.714844 93.214844 230.277344 93.414062 230.824219 93.640625 C 231.375 93.871094 231.914062 94.125 232.441406 94.40625 C 232.964844 94.6875 233.476562 94.992188 233.96875 95.324219 C 234.464844 95.652344 234.945312 96.007812 235.402344 96.386719 C 235.863281 96.765625 236.304688 97.164062 236.726562 97.585938 C 237.148438 98.007812 237.546875 98.445312 237.925781 98.90625 C 238.304688 99.367188 238.65625 99.847656 238.988281 100.339844 C 239.320312 100.835938 239.625 101.347656 239.90625 101.871094 C 240.1875 102.398438 240.441406 102.933594 240.667969 103.484375 C 240.898438 104.035156 241.097656 104.597656 241.269531 105.167969 C 241.445312 105.734375 241.589844 106.3125 241.703125 106.898438 C 241.820312 107.480469 241.90625 108.070312 241.964844 108.664062 C 242.023438 109.257812 242.054688 109.851562 242.054688 110.445312 L 242.054688 187.128906 C 242.054688 187.726562 242.023438 188.320312 241.964844 188.910156 C 241.90625 189.503906 241.820312 190.09375 241.703125 190.675781 C 241.589844 191.261719 241.445312 191.839844 241.269531 192.410156 C 241.097656 192.980469 240.898438 193.539062 240.667969 194.089844 C 240.441406 194.640625 240.1875 195.175781 239.90625 195.703125 C 239.625 196.226562 239.320312 196.738281 238.988281 197.234375 C 238.65625 197.730469 238.304688 198.207031 237.925781 198.667969 C 237.546875 199.128906 237.148438 199.570312 236.726562 199.988281 C 236.304688 200.410156 235.863281 200.8125 235.402344 201.1875 C 234.945312 201.566406 234.464844 201.921875 233.96875 202.25 C 233.476562 202.582031 232.964844 202.886719 232.441406 203.167969 C 231.914062 203.449219 231.375 203.703125 230.828125 203.933594 C 230.277344 204.160156 229.714844 204.359375 229.144531 204.535156 C 228.574219 204.707031 228 204.851562 227.414062 204.96875 C 226.828125 205.082031 226.242188 205.171875 225.648438 205.230469 C 225.054688 205.289062 224.460938 205.316406 223.867188 205.316406 L 147.648438 205.316406 C 147.054688 205.316406 146.460938 205.289062 145.867188 205.230469 C 145.273438 205.171875 144.683594 205.082031 144.101562 204.96875 C 143.515625 204.851562 142.9375 204.707031 142.371094 204.535156 C 141.800781 204.359375 141.238281 204.160156 140.6875 203.933594 C 140.136719 203.703125 139.601562 203.449219 139.074219 203.167969 C 138.550781 202.886719 138.039062 202.582031 137.542969 202.25 C 137.050781 201.921875 136.570312 201.566406 136.109375 201.1875 C 135.648438 200.8125 135.210938 200.410156 134.789062 199.988281 C 134.367188 199.570312 133.96875 199.128906 133.589844 198.667969 C 133.210938 198.207031 132.855469 197.730469 132.527344 197.234375 C 132.195312 196.738281 131.890625 196.226562 131.609375 195.703125 C 131.328125 195.175781 131.074219 194.640625 130.84375 194.089844 C 130.617188 193.539062 130.417969 192.980469 130.246094 192.410156 C 130.070312 191.839844 129.925781 191.261719 129.808594 190.675781 C 129.695312 190.09375 129.605469 189.503906 129.546875 188.910156 C 129.492188 188.320312 129.460938 187.726562 129.460938 187.128906 L 129.460938 110.445312 C 129.460938 109.851562 129.492188 109.257812 129.546875 108.664062 C 129.605469 108.070312 129.695312 107.480469 129.808594 106.898438 C 129.925781 106.3125 130.070312 105.734375 130.246094 105.167969 C 130.417969 104.597656 130.617188 104.035156 130.84375 103.484375 C 131.074219 102.933594 131.328125 102.398438 131.609375 101.871094 C 131.890625 101.347656 132.195312 100.835938 132.527344 100.339844 C 132.855469 99.847656 133.210938 99.367188 133.589844 98.90625 C 133.96875 98.445312 134.367188 98.007812 134.789062 97.585938 C 135.210938 97.164062 135.648438 96.765625 136.109375 96.386719 C 136.570312 96.007812 137.050781 95.652344 137.542969 95.324219 C 138.039062 94.992188 138.550781 94.6875 139.074219 94.40625 C 139.601562 94.125 140.136719 93.871094 140.6875 93.640625 C 141.238281 93.414062 141.800781 93.214844 142.371094 93.042969 C 142.9375 92.867188 143.515625 92.722656 144.101562 92.609375 C 144.683594 92.492188 145.273438 92.402344 145.867188 92.34375 C 146.460938 92.289062 147.054688 92.257812 147.648438 92.257812 Z M 147.648438 92.257812 "/></clipPath><clipPath id="fb22ac5b9c"><path d="M 150 217 L 355 217 L 355 282.886719 L 150 282.886719 Z M 150 217 "/></clipPath></defs><g id="b4f4827b60"><rect x="0" width="375" y="0" height="374.999991" style="fill:#ffffff;fill-opacity:1;stroke:none;"/><rect x="0" width="375" y="0" height="374.999991" style="fill:#ffffff;fill-opacity:1;stroke:none;"/><g clip-rule="nonzero" clip-path="url(#95e8c141ea)"><g clip-rule="nonzero" clip-path="url(#056160a364)"><path style=" stroke:none;fill-rule:nonzero;fill:#000000;fill-opacity:1;" d="M 129.460938 92.386719 L 129.460938 205.316406 L 242.054688 205.316406 L 242.054688 92.386719 Z M 129.460938 92.386719 "/></g></g><path style=" stroke:none;fill-rule:nonzero;fill:#ffffff;fill-opacity:1;" d="M 186.601562 140.921875 C 189.476562 140.921875 191.65625 140.304688 193.144531 139.042969 C 194.628906 137.785156 195.371094 135.949219 195.371094 133.511719 C 195.371094 131.101562 194.628906 129.273438 193.144531 128.023438 C 191.648438 126.738281 189.476562 126.097656 186.601562 126.097656 L 176.503906 126.097656 L 176.503906 140.921875 L 186.601562 140.921875 M 187.21875 171.550781 C 190.882812 171.550781 193.632812 170.785156 195.464844 169.253906 C 197.328125 167.722656 198.261719 165.40625 198.261719 162.3125 C 198.261719 159.277344 197.34375 157.011719 195.511719 155.511719 C 193.679688 153.976562 190.914062 153.210938 187.21875 153.210938 L 176.507812 153.210938 L 176.507812 171.554688 L 187.21875 171.554688 M 204.1875 146.363281 C 208.105469 147.492188 211.136719 149.570312 213.285156 152.601562 C 215.433594 155.636719 216.507812 159.355469 216.511719 163.765625 C 216.511719 170.523438 214.203125 175.558594 209.589844 178.871094 C 204.976562 182.1875 197.964844 183.84375 188.546875 183.84375 L 158.261719 183.84375 L 158.261719 113.828125 L 185.65625 113.828125 C 195.484375 113.828125 202.59375 115.296875 206.984375 118.234375 C 211.40625 121.175781 213.621094 125.882812 213.621094 132.355469 C 213.621094 135.765625 212.8125 138.671875 211.203125 141.078125 C 209.59375 143.457031 207.246094 145.214844 204.1875 146.378906 "/><path style=" stroke:none;fill-rule:nonzero;fill:#000000;fill-opacity:1;" d="M 27.832031 242.921875 L 27.832031 261.945312 L 39.105469 261.945312 C 42.878906 261.945312 45.679688 261.167969 47.488281 259.613281 C 49.320312 258.035156 50.234375 255.636719 50.234375 252.417969 C 50.234375 249.214844 49.316406 246.785156 47.488281 245.253906 C 45.679688 243.699219 42.886719 242.921875 39.105469 242.921875 L 27.832031 242.921875 M 27.832031 221.5625 L 27.832031 237.21875 L 38.234375 237.21875 C 41.667969 237.21875 44.21875 236.578125 45.886719 235.308594 C 47.578125 234.007812 48.425781 232.035156 48.425781 229.394531 C 48.425781 226.773438 47.578125 224.8125 45.886719 223.515625 C 44.195312 222.21875 41.664062 221.566406 38.234375 221.566406 L 27.832031 221.566406 M 20.804688 215.796875 L 38.757812 215.796875 C 44.117188 215.796875 48.246094 216.910156 51.144531 219.136719 C 54.042969 221.363281 55.492188 224.53125 55.492188 228.636719 C 55.492188 231.8125 54.75 234.339844 53.265625 236.222656 C 51.777344 238.101562 49.59375 239.273438 46.722656 239.734375 C 50.179688 240.476562 52.859375 242.03125 54.761719 244.367188 C 56.683594 246.710938 57.609375 249.636719 57.609375 253.164062 C 57.609375 257.800781 56.03125 261.386719 52.878906 263.914062 C 49.726562 266.445312 45.238281 267.703125 39.414062 267.703125 L 20.769531 267.703125 L 20.769531 215.777344 "/><path style=" stroke:none;fill-rule:nonzero;fill:#000000;fill-opacity:1;" d="M 84.109375 233.246094 C 83.316406 233.222656 82.53125 233.292969 81.757812 233.460938 C 80.984375 233.628906 80.242188 233.886719 79.53125 234.238281 C 78.820312 234.59375 78.164062 235.027344 77.5625 235.539062 C 76.957031 236.054688 76.425781 236.636719 75.96875 237.285156 C 73.972656 239.957031 72.976562 243.613281 72.976562 248.277344 C 72.976562 252.941406 73.964844 256.613281 75.933594 259.304688 C 77.929688 261.976562 80.652344 263.304688 84.109375 263.304688 C 84.898438 263.332031 85.679688 263.257812 86.449219 263.089844 C 87.222656 262.921875 87.960938 262.660156 88.667969 262.308594 C 89.375 261.957031 90.03125 261.523438 90.628906 261.007812 C 91.230469 260.496094 91.757812 259.914062 92.210938 259.269531 C 94.207031 256.578125 95.203125 252.914062 95.203125 248.277344 C 95.203125 243.660156 94.207031 240.011719 92.210938 237.320312 C 90.21875 234.605469 87.519531 233.246094 84.109375 233.246094 M 84.109375 227.824219 C 89.671875 227.824219 94.082031 229.632812 97.222656 233.246094 C 100.367188 236.863281 101.992188 241.875 101.992188 248.28125 C 101.992188 254.683594 100.402344 259.667969 97.222656 263.3125 C 94.046875 266.929688 89.671875 268.738281 84.109375 268.738281 C 78.515625 268.738281 74.132812 266.929688 70.929688 263.3125 C 67.777344 259.671875 66.199219 254.664062 66.199219 248.28125 C 66.199219 241.878906 67.777344 236.871094 70.929688 233.246094 C 74.105469 229.628906 78.488281 227.824219 84.109375 227.824219 "/><path style=" stroke:none;fill-rule:nonzero;fill:#000000;fill-opacity:1;" d="M 127.308594 233.246094 C 126.515625 233.222656 125.730469 233.292969 124.957031 233.460938 C 124.179688 233.628906 123.4375 233.886719 122.726562 234.238281 C 122.019531 234.59375 121.363281 235.027344 120.757812 235.539062 C 120.15625 236.054688 119.625 236.636719 119.167969 237.285156 C 117.171875 239.957031 116.175781 243.613281 116.175781 248.277344 C 116.175781 252.941406 117.160156 256.613281 119.132812 259.304688 C 121.125 261.976562 123.851562 263.304688 127.308594 263.304688 C 128.097656 263.332031 128.878906 263.257812 129.648438 263.089844 C 130.421875 262.921875 131.160156 262.660156 131.867188 262.308594 C 132.574219 261.957031 133.226562 261.523438 133.828125 261.007812 C 134.425781 260.496094 134.953125 259.914062 135.410156 259.269531 C 137.40625 256.578125 138.402344 252.914062 138.402344 248.277344 C 138.402344 243.660156 137.40625 240.011719 135.410156 237.320312 C 133.414062 234.605469 130.714844 233.246094 127.308594 233.246094 M 127.308594 227.824219 C 132.871094 227.824219 137.28125 229.632812 140.421875 233.246094 C 143.566406 236.863281 145.1875 241.875 145.1875 248.28125 C 145.1875 254.683594 143.601562 259.667969 140.421875 263.3125 C 137.246094 266.929688 132.871094 268.738281 127.308594 268.738281 C 121.714844 268.738281 117.332031 266.929688 114.125 263.3125 C 110.972656 259.671875 109.394531 254.664062 109.394531 248.28125 C 109.394531 241.878906 110.972656 236.871094 114.125 233.246094 C 117.304688 229.628906 121.6875 227.824219 127.308594 227.824219 "/><g clip-rule="nonzero" clip-path="url(#fb22ac5b9c)"><path style=" stroke:none;fill-rule:nonzero;fill:#000000;fill-opacity:1;" d="M 161.734375 217.695312 L 161.734375 228.757812 L 174.914062 228.757812 L 174.914062 233.730469 L 161.734375 233.730469 L 161.734375 254.882812 C 161.734375 258.058594 162.164062 260.097656 163.015625 261.007812 C 163.898438 261.914062 165.671875 262.363281 168.339844 262.363281 L 174.914062 262.363281 L 174.914062 267.71875 L 168.335938 267.71875 C 163.394531 267.71875 159.984375 266.804688 158.113281 264.976562 C 156.234375 263.125 155.261719 259.757812 155.261719 254.886719 L 155.261719 233.730469 L 150.566406 233.730469 L 150.566406 228.757812 L 155.261719 228.757812 L 155.261719 217.703125 L 161.699219 217.703125 M 207.816406 229.910156 L 207.816406 235.964844 C 206.019531 235.042969 204.140625 234.347656 202.179688 233.878906 C 200.230469 233.414062 198.214844 233.183594 196.125 233.183594 C 192.945312 233.183594 190.554688 233.671875 188.957031 234.609375 C 187.378906 235.582031 186.589844 237.046875 186.589844 238.988281 C 186.589844 240.476562 187.160156 241.644531 188.300781 242.503906 C 189.441406 243.335938 191.722656 244.140625 195.15625 244.902344 L 197.347656 245.390625 C 201.890625 246.363281 205.109375 247.742188 207.015625 249.53125 C 208.941406 251.292969 209.867188 253.761719 209.867188 256.941406 C 209.890625 257.777344 209.816406 258.605469 209.636719 259.421875 C 209.457031 260.238281 209.183594 261.023438 208.808594 261.773438 C 208.4375 262.523438 207.976562 263.214844 207.433594 263.851562 C 206.886719 264.488281 206.273438 265.046875 205.59375 265.53125 C 202.742188 267.640625 198.808594 268.738281 193.835938 268.738281 C 191.75 268.738281 189.570312 268.523438 187.296875 268.109375 C 185.046875 267.753906 182.667969 267.113281 180.164062 266.300781 L 180.164062 259.695312 C 182.53125 260.921875 184.859375 261.847656 187.15625 262.472656 C 189.390625 263.066406 191.664062 263.371094 193.976562 263.375 C 196.988281 263.375 199.308594 262.867188 200.933594 261.84375 C 202.558594 260.800781 203.371094 259.339844 203.371094 257.464844 C 203.371094 255.726562 202.777344 254.390625 201.59375 253.464844 C 200.433594 252.535156 197.871094 251.683594 193.910156 250.785156 L 191.683594 250.265625 C 187.71875 249.429688 184.851562 248.15625 183.089844 246.4375 C 181.328125 244.699219 180.445312 242.320312 180.445312 239.308594 C 180.445312 235.636719 181.746094 232.8125 184.34375 230.820312 C 186.941406 228.824219 190.628906 227.828125 195.40625 227.828125 C 197.644531 227.816406 199.871094 227.988281 202.082031 228.347656 C 204.0625 228.664062 205.988281 229.183594 207.859375 229.910156 M 226.140625 217.691406 L 226.140625 228.753906 L 239.320312 228.753906 L 239.320312 233.726562 L 226.140625 233.726562 L 226.140625 254.878906 C 226.140625 258.054688 226.570312 260.097656 227.425781 261.003906 C 228.304688 261.910156 230.078125 262.359375 232.746094 262.359375 L 239.328125 262.359375 L 239.328125 267.714844 L 232.753906 267.714844 C 227.8125 267.714844 224.402344 266.800781 222.53125 264.972656 C 220.652344 263.121094 219.679688 259.753906 219.679688 254.882812 L 219.679688 233.726562 L 214.984375 233.726562 L 214.984375 228.753906 L 219.679688 228.753906 L 219.679688 217.703125 L 226.148438 217.703125 M 269.964844 234.746094 C 269.222656 234.320312 268.433594 234.019531 267.597656 233.84375 C 266.683594 233.621094 265.757812 233.519531 264.820312 233.53125 C 261.199219 233.53125 258.417969 234.710938 256.46875 237.078125 C 254.546875 239.421875 253.621094 242.792969 253.621094 247.199219 L 253.621094 267.726562 L 247.183594 267.726562 L 247.183594 228.757812 L 253.621094 228.757812 L 253.621094 234.8125 C 254.96875 232.445312 256.71875 230.695312 258.875 229.558594 C 261.03125 228.394531 263.648438 227.820312 266.738281 227.820312 C 267.226562 227.824219 267.710938 227.855469 268.195312 227.921875 L 269.972656 228.164062 L 270.007812 234.742188 M 294.136719 248.132812 C 288.964844 248.132812 285.378906 248.726562 283.386719 249.90625 C 281.390625 251.089844 280.394531 253.105469 280.394531 255.964844 C 280.394531 258.238281 281.132812 260.046875 282.621094 261.390625 C 284.125 262.707031 286.167969 263.375 288.746094 263.375 C 292.296875 263.375 295.136719 262.121094 297.269531 259.613281 C 299.425781 257.121094 300.503906 253.738281 300.503906 249.5625 L 300.503906 248.136719 L 294.140625 248.136719 M 306.90625 245.496094 L 306.90625 267.722656 L 300.503906 267.722656 L 300.503906 261.808594 C 299.082031 264.175781 297.230469 265.925781 295.046875 267.0625 C 292.863281 268.175781 290.199219 268.738281 287.042969 268.738281 C 283.054688 268.738281 279.878906 267.625 277.511719 265.398438 C 275.167969 263.148438 274 260.144531 274 256.386719 C 274 252.007812 275.425781 248.699219 278.382812 246.472656 C 281.335938 244.246094 285.707031 243.136719 291.5625 243.136719 L 300.539062 243.136719 L 300.539062 242.507812 C 300.539062 239.5625 299.566406 237.292969 297.617188 235.691406 C 295.691406 234.066406 292.980469 233.253906 289.476562 233.253906 C 287.25 233.253906 285.082031 233.523438 282.972656 234.054688 C 280.839844 234.597656 278.8125 235.398438 276.886719 236.457031 L 276.886719 230.542969 C 279.230469 229.640625 281.5 228.964844 283.703125 228.527344 C 285.824219 228.074219 287.96875 227.839844 290.140625 227.832031 C 295.773438 227.832031 299.984375 229.257812 302.769531 232.214844 C 305.550781 235.171875 306.941406 239.566406 306.941406 245.5 M 326 261.875 L 326 282.535156 L 319.5625 282.535156 L 319.5625 228.757812 L 326 228.757812 L 326 234.671875 C 327.347656 232.355469 329.039062 230.636719 331.078125 229.527344 C 333.144531 228.386719 335.601562 227.816406 338.453125 227.816406 C 339.566406 227.789062 340.671875 227.898438 341.761719 228.136719 C 342.847656 228.375 343.894531 228.738281 344.894531 229.230469 C 345.898438 229.71875 346.828125 230.324219 347.683594 231.035156 C 348.542969 231.75 349.300781 232.554688 349.964844 233.449219 C 352.933594 237.210938 354.417969 242.144531 354.417969 248.269531 C 354.417969 254.394531 352.933594 259.328125 349.964844 263.089844 C 349.300781 263.984375 348.542969 264.789062 347.683594 265.503906 C 346.828125 266.214844 345.898438 266.820312 344.894531 267.308594 C 343.894531 267.800781 342.847656 268.164062 341.761719 268.402344 C 340.671875 268.640625 339.566406 268.75 338.453125 268.722656 C 335.601562 268.722656 333.109375 268.167969 331.078125 267.050781 C 329.039062 265.910156 327.347656 264.183594 326 261.867188 M 347.773438 248.265625 C 347.773438 243.558594 346.804688 239.871094 344.855469 237.207031 C 342.929688 234.515625 340.273438 233.167969 336.890625 233.167969 C 336.105469 233.144531 335.332031 233.214844 334.570312 233.382812 C 333.804688 233.550781 333.070312 233.8125 332.375 234.164062 C 331.675781 234.515625 331.03125 234.949219 330.441406 235.464844 C 329.851562 235.980469 329.332031 236.558594 328.890625 237.207031 C 326.964844 239.878906 326.039062 243.558594 326.039062 248.265625 C 326.039062 252.972656 327 256.671875 328.890625 259.363281 C 330.835938 262.035156 333.503906 263.363281 336.890625 263.363281 C 340.273438 263.363281 342.929688 262.03125 344.855469 259.363281 C 346.804688 256.671875 347.773438 252.972656 347.773438 248.265625 "/></g></g></svg>