<svg xmlns="http://www.w3.org/2000/svg" xmlns:xlink="http://www.w3.org/1999/xlink" width="500" zoomAndPan="magnify" viewBox="0 0 375 374.999991" height="500" preserveAspectRatio="xMidYMid meet" version="1.2"><defs><clipPath id="c7d373d170"><path d="M 129 92.386719 L 243 92.386719 L 243 206 L 129 206 Z M 129 92.386719 "/></clipPath><clipPath id="b0ed4db41a"><path d="M 147.648438 92.257812 L 223.867188 92.257812 C 224.460938 92.257812 225.054688 92.285156 225.648438 92.34375 C 226.242188 92.402344 226.828125 92.492188 227.414062 92.609375 C 228 92.722656 228.574219 92.867188 229.144531 93.042969 C 229.714844 93.214844 230.277344 93.414062 230.824219 93.644531 C 231.375 93.871094 231.914062 94.128906 232.441406 94.410156 C 232.964844 94.691406 233.476562 94.996094 233.96875 95.328125 C 234.464844 95.660156 234.945312 96.015625 235.402344 96.390625 C 235.863281 96.769531 236.304688 97.171875 236.726562 97.59375 C 237.148438 98.015625 237.546875 98.457031 237.925781 98.917969 C 238.304688 99.378906 238.65625 99.855469 238.988281 100.351562 C 239.320312 100.847656 239.625 101.359375 239.90625 101.886719 C 240.1875 102.414062 240.441406 102.949219 240.667969 103.503906 C 240.898438 104.054688 241.097656 104.613281 241.269531 105.183594 C 241.445312 105.757812 241.589844 106.332031 241.703125 106.917969 C 241.820312 107.503906 241.90625 108.09375 241.964844 108.6875 C 242.023438 109.28125 242.054688 109.875 242.054688 110.472656 L 242.054688 187.269531 C 242.054688 187.867188 242.023438 188.460938 241.964844 189.054688 C 241.90625 189.648438 241.820312 190.238281 241.703125 190.824219 C 241.589844 191.40625 241.445312 191.984375 241.269531 192.554688 C 241.097656 193.128906 240.898438 193.6875 240.667969 194.238281 C 240.441406 194.789062 240.1875 195.328125 239.90625 195.855469 C 239.625 196.382812 239.320312 196.894531 238.988281 197.390625 C 238.65625 197.886719 238.304688 198.363281 237.925781 198.824219 C 237.546875 199.285156 237.148438 199.726562 236.726562 200.148438 C 236.304688 200.570312 235.863281 200.972656 235.402344 201.347656 C 234.945312 201.726562 234.464844 202.082031 233.96875 202.414062 C 233.476562 202.746094 232.964844 203.050781 232.441406 203.332031 C 231.914062 203.613281 231.375 203.867188 230.828125 204.097656 C 230.277344 204.324219 229.714844 204.527344 229.144531 204.699219 C 228.574219 204.871094 228 205.015625 227.414062 205.132812 C 226.828125 205.25 226.242188 205.335938 225.648438 205.394531 C 225.054688 205.453125 224.460938 205.484375 223.867188 205.484375 L 147.648438 205.484375 C 147.054688 205.484375 146.460938 205.453125 145.867188 205.394531 C 145.273438 205.335938 144.683594 205.25 144.101562 205.132812 C 143.515625 205.015625 142.9375 204.871094 142.371094 204.699219 C 141.800781 204.527344 141.238281 204.324219 140.6875 204.097656 C 140.136719 203.871094 139.601562 203.613281 139.074219 203.332031 C 138.550781 203.050781 138.039062 202.746094 137.542969 202.414062 C 137.050781 202.082031 136.570312 201.726562 136.109375 201.347656 C 135.648438 200.972656 135.210938 200.570312 134.789062 200.148438 C 134.367188 199.726562 133.96875 199.285156 133.589844 198.824219 C 133.210938 198.363281 132.855469 197.886719 132.527344 197.390625 C 132.195312 196.894531 131.890625 196.382812 131.609375 195.855469 C 131.328125 195.328125 131.074219 194.789062 130.84375 194.238281 C 130.617188 193.6875 130.417969 193.128906 130.246094 192.554688 C 130.070312 191.984375 129.925781 191.40625 129.808594 190.824219 C 129.695312 190.238281 129.605469 189.648438 129.546875 189.054688 C 129.492188 188.460938 129.460938 187.867188 129.460938 187.269531 L 129.460938 110.472656 C 129.460938 109.875 129.492188 109.28125 129.546875 108.6875 C 129.605469 108.09375 129.695312 107.503906 129.808594 106.917969 C 129.925781 106.332031 130.070312 105.757812 130.246094 105.183594 C 130.417969 104.613281 130.617188 104.054688 130.84375 103.503906 C 131.074219 102.949219 131.328125 102.414062 131.609375 101.886719 C 131.890625 101.359375 132.195312 100.847656 132.527344 100.351562 C 132.855469 99.855469 133.210938 99.378906 133.589844 98.917969 C 133.96875 98.457031 134.367188 98.015625 134.789062 97.59375 C 135.210938 97.171875 135.648438 96.769531 136.109375 96.390625 C 136.570312 96.015625 137.050781 95.660156 137.542969 95.328125 C 138.039062 94.996094 138.550781 94.691406 139.074219 94.410156 C 139.601562 94.128906 140.136719 93.871094 140.6875 93.644531 C 141.238281 93.414062 141.800781 93.214844 142.371094 93.042969 C 142.9375 92.867188 143.515625 92.722656 144.101562 92.609375 C 144.683594 92.492188 145.273438 92.402344 145.867188 92.34375 C 146.460938 92.285156 147.054688 92.257812 147.648438 92.257812 Z M 147.648438 92.257812 "/></clipPath><linearGradient x1="255.659411" gradientTransform="matrix(0.879494,0,0,0.880795,-95.021134,-282.370723)" y1="554.292216" x2="382.75331" gradientUnits="userSpaceOnUse" y2="424.977883" id="595d8a5f4d"><stop style="stop-color:#070135;stop-opacity:1;" offset="0"/><stop style="stop-color:#070135;stop-opacity:1;" offset="0.0625"/><stop style="stop-color:#080235;stop-opacity:1;" offset="0.0703125"/><stop style="stop-color:#090236;stop-opacity:1;" offset="0.078125"/><stop style="stop-color:#0a0236;stop-opacity:1;" offset="0.0859375"/><stop style="stop-color:#0a0336;stop-opacity:1;" offset="0.09375"/><stop style="stop-color:#0b0336;stop-opacity:1;" offset="0.101562"/><stop style="stop-color:#0c0437;stop-opacity:1;" offset="0.109375"/><stop style="stop-color:#0d0437;stop-opacity:1;" offset="0.117188"/><stop style="stop-color:#0e0437;stop-opacity:1;" offset="0.125"/><stop style="stop-color:#0e0537;stop-opacity:1;" offset="0.132813"/><stop style="stop-color:#0f0538;stop-opacity:1;" offset="0.140625"/><stop style="stop-color:#100538;stop-opacity:1;" offset="0.148438"/><stop style="stop-color:#110638;stop-opacity:1;" offset="0.15625"/><stop style="stop-color:#120638;stop-opacity:1;" offset="0.164062"/><stop style="stop-color:#120738;stop-opacity:1;" offset="0.171875"/><stop style="stop-color:#130739;stop-opacity:1;" offset="0.179688"/><stop style="stop-color:#140739;stop-opacity:1;" offset="0.1875"/><stop style="stop-color:#150839;stop-opacity:1;" offset="0.195313"/><stop style="stop-color:#160839;stop-opacity:1;" offset="0.203125"/><stop style="stop-color:#16093a;stop-opacity:1;" offset="0.210938"/><stop style="stop-color:#17093a;stop-opacity:1;" offset="0.21875"/><stop style="stop-color:#18093a;stop-opacity:1;" offset="0.226562"/><stop style="stop-color:#190a3a;stop-opacity:1;" offset="0.234375"/><stop style="stop-color:#1a0a3b;stop-opacity:1;" offset="0.242188"/><stop style="stop-color:#1a0a3b;stop-opacity:1;" offset="0.25"/><stop style="stop-color:#1b0b3b;stop-opacity:1;" offset="0.257813"/><stop style="stop-color:#1c0b3b;stop-opacity:1;" offset="0.265625"/><stop style="stop-color:#1d0c3c;stop-opacity:1;" offset="0.273438"/><stop style="stop-color:#1d0c3c;stop-opacity:1;" offset="0.28125"/><stop style="stop-color:#1e0c3c;stop-opacity:1;" offset="0.289062"/><stop style="stop-color:#1f0d3c;stop-opacity:1;" offset="0.296875"/><stop style="stop-color:#200d3d;stop-opacity:1;" offset="0.304688"/><stop style="stop-color:#210e3d;stop-opacity:1;" offset="0.3125"/><stop style="stop-color:#210e3d;stop-opacity:1;" offset="0.320312"/><stop style="stop-color:#220e3d;stop-opacity:1;" offset="0.328125"/><stop style="stop-color:#230f3d;stop-opacity:1;" offset="0.335938"/><stop style="stop-color:#240f3e;stop-opacity:1;" offset="0.34375"/><stop style="stop-color:#250f3e;stop-opacity:1;" offset="0.351562"/><stop style="stop-color:#25103e;stop-opacity:1;" offset="0.359375"/><stop style="stop-color:#26103e;stop-opacity:1;" offset="0.367187"/><stop style="stop-color:#27113f;stop-opacity:1;" offset="0.375"/><stop style="stop-color:#28113f;stop-opacity:1;" offset="0.382813"/><stop style="stop-color:#29113f;stop-opacity:1;" offset="0.390625"/><stop style="stop-color:#29123f;stop-opacity:1;" offset="0.398438"/><stop style="stop-color:#2a1240;stop-opacity:1;" offset="0.40625"/><stop style="stop-color:#2b1340;stop-opacity:1;" offset="0.414062"/><stop style="stop-color:#2c1340;stop-opacity:1;" offset="0.421875"/><stop style="stop-color:#2d1340;stop-opacity:1;" offset="0.429688"/><stop style="stop-color:#2d1441;stop-opacity:1;" offset="0.4375"/><stop style="stop-color:#2e1441;stop-opacity:1;" offset="0.445312"/><stop style="stop-color:#2f1541;stop-opacity:1;" offset="0.453125"/><stop style="stop-color:#301541;stop-opacity:1;" offset="0.460938"/><stop style="stop-color:#301542;stop-opacity:1;" offset="0.46875"/><stop style="stop-color:#311642;stop-opacity:1;" offset="0.476562"/><stop style="stop-color:#321642;stop-opacity:1;" offset="0.484375"/><stop style="stop-color:#331642;stop-opacity:1;" offset="0.492187"/><stop style="stop-color:#341742;stop-opacity:1;" offset="0.494921"/><stop style="stop-color:#341743;stop-opacity:1;" offset="0.5"/><stop style="stop-color:#341743;stop-opacity:1;" offset="0.505079"/><stop style="stop-color:#351743;stop-opacity:1;" offset="0.507812"/><stop style="stop-color:#351843;stop-opacity:1;" offset="0.515625"/><stop style="stop-color:#361843;stop-opacity:1;" offset="0.523438"/><stop style="stop-color:#371843;stop-opacity:1;" offset="0.53125"/><stop style="stop-color:#381944;stop-opacity:1;" offset="0.539062"/><stop style="stop-color:#381944;stop-opacity:1;" offset="0.546875"/><stop style="stop-color:#391a44;stop-opacity:1;" offset="0.554688"/><stop style="stop-color:#3a1a44;stop-opacity:1;" offset="0.5625"/><stop style="stop-color:#3b1a45;stop-opacity:1;" offset="0.570313"/><stop style="stop-color:#3c1b45;stop-opacity:1;" offset="0.578125"/><stop style="stop-color:#3c1b45;stop-opacity:1;" offset="0.585938"/><stop style="stop-color:#3d1b45;stop-opacity:1;" offset="0.59375"/><stop style="stop-color:#3e1c46;stop-opacity:1;" offset="0.601562"/><stop style="stop-color:#3f1c46;stop-opacity:1;" offset="0.609375"/><stop style="stop-color:#401d46;stop-opacity:1;" offset="0.617188"/><stop style="stop-color:#401d46;stop-opacity:1;" offset="0.625"/><stop style="stop-color:#411d47;stop-opacity:1;" offset="0.632812"/><stop style="stop-color:#421e47;stop-opacity:1;" offset="0.640625"/><stop style="stop-color:#431e47;stop-opacity:1;" offset="0.648438"/><stop style="stop-color:#441f47;stop-opacity:1;" offset="0.65625"/><stop style="stop-color:#441f47;stop-opacity:1;" offset="0.664062"/><stop style="stop-color:#451f48;stop-opacity:1;" offset="0.671875"/><stop style="stop-color:#462048;stop-opacity:1;" offset="0.679687"/><stop style="stop-color:#472048;stop-opacity:1;" offset="0.6875"/><stop style="stop-color:#472048;stop-opacity:1;" offset="0.695312"/><stop style="stop-color:#482149;stop-opacity:1;" offset="0.703125"/><stop style="stop-color:#492149;stop-opacity:1;" offset="0.710938"/><stop style="stop-color:#4a2249;stop-opacity:1;" offset="0.71875"/><stop style="stop-color:#4b2249;stop-opacity:1;" offset="0.726562"/><stop style="stop-color:#4b224a;stop-opacity:1;" offset="0.734375"/><stop style="stop-color:#4c234a;stop-opacity:1;" offset="0.742188"/><stop style="stop-color:#4d234a;stop-opacity:1;" offset="0.75"/><stop style="stop-color:#4e244a;stop-opacity:1;" offset="0.757812"/><stop style="stop-color:#4f244b;stop-opacity:1;" offset="0.765625"/><stop style="stop-color:#4f244b;stop-opacity:1;" offset="0.773438"/><stop style="stop-color:#50254b;stop-opacity:1;" offset="0.78125"/><stop style="stop-color:#51254b;stop-opacity:1;" offset="0.789062"/><stop style="stop-color:#52264c;stop-opacity:1;" offset="0.796875"/><stop style="stop-color:#53264c;stop-opacity:1;" offset="0.804688"/><stop style="stop-color:#53264c;stop-opacity:1;" offset="0.8125"/><stop style="stop-color:#54274c;stop-opacity:1;" offset="0.820313"/><stop style="stop-color:#55274c;stop-opacity:1;" offset="0.828125"/><stop style="stop-color:#56274d;stop-opacity:1;" offset="0.835938"/><stop style="stop-color:#57284d;stop-opacity:1;" offset="0.84375"/><stop style="stop-color:#57284d;stop-opacity:1;" offset="0.851562"/><stop style="stop-color:#58294d;stop-opacity:1;" offset="0.859375"/><stop style="stop-color:#59294e;stop-opacity:1;" offset="0.867188"/><stop style="stop-color:#5a294e;stop-opacity:1;" offset="0.875"/><stop style="stop-color:#5a2a4e;stop-opacity:1;" offset="0.882812"/><stop style="stop-color:#5b2a4e;stop-opacity:1;" offset="0.890625"/><stop style="stop-color:#5c2b4f;stop-opacity:1;" offset="0.898438"/><stop style="stop-color:#5d2b4f;stop-opacity:1;" offset="0.90625"/><stop style="stop-color:#5e2b4f;stop-opacity:1;" offset="0.914062"/><stop style="stop-color:#5e2c4f;stop-opacity:1;" offset="0.921875"/><stop style="stop-color:#5f2c50;stop-opacity:1;" offset="0.929687"/><stop style="stop-color:#602c50;stop-opacity:1;" offset="0.9375"/><stop style="stop-color:#612d50;stop-opacity:1;" offset="1"/></linearGradient><clipPath id="e750b65c49"><path d="M 150 217 L 355 217 L 355 282.886719 L 150 282.886719 Z M 150 217 "/></clipPath></defs><g id="cf07f68e08"><rect x="0" width="375" y="0" height="374.999991" style="fill:#ffffff;fill-opacity:1;stroke:none;"/><rect x="0" width="375" y="0" height="374.999991" style="fill:#ffffff;fill-opacity:1;stroke:none;"/><g clip-rule="nonzero" clip-path="url(#c7d373d170)"><g clip-rule="nonzero" clip-path="url(#b0ed4db41a)"><path style=" stroke:none;fill-rule:nonzero;fill:url(#595d8a5f4d);" d="M 129.460938 92.386719 L 129.460938 205.484375 L 242.054688 205.484375 L 242.054688 92.386719 Z M 129.460938 92.386719 "/></g></g><path style=" stroke:none;fill-rule:nonzero;fill:#ffffff;fill-opacity:1;" d="M 186.601562 140.992188 C 189.476562 140.992188 191.65625 140.375 193.144531 139.113281 C 194.628906 137.851562 195.371094 136.011719 195.371094 133.570312 C 195.371094 131.160156 194.628906 129.328125 193.144531 128.074219 C 191.648438 126.789062 189.476562 126.148438 186.601562 126.148438 L 176.503906 126.148438 L 176.503906 140.992188 L 186.601562 140.992188 M 187.21875 171.667969 C 190.882812 171.667969 193.632812 170.902344 195.464844 169.367188 C 197.328125 167.832031 198.261719 165.515625 198.261719 162.414062 C 198.261719 159.375 197.34375 157.105469 195.511719 155.605469 C 193.679688 154.070312 190.914062 153.300781 187.21875 153.300781 L 176.507812 153.300781 L 176.507812 171.671875 L 187.21875 171.671875 M 204.1875 146.445312 C 208.105469 147.570312 211.136719 149.65625 213.285156 152.691406 C 215.433594 155.730469 216.507812 159.457031 216.511719 163.871094 C 216.511719 170.636719 214.203125 175.679688 209.589844 179 C 204.976562 182.320312 197.964844 183.980469 188.546875 183.980469 L 158.261719 183.980469 L 158.261719 113.859375 L 185.65625 113.859375 C 195.484375 113.859375 202.59375 115.328125 206.984375 118.273438 C 211.40625 121.21875 213.621094 125.929688 213.621094 132.414062 C 213.621094 135.828125 212.8125 138.738281 211.203125 141.152344 C 209.59375 143.53125 207.246094 145.292969 204.1875 146.460938 "/><path style=" stroke:none;fill-rule:nonzero;fill:#230f3d;fill-opacity:1;" d="M 27.832031 243.144531 L 27.832031 262.195312 L 39.105469 262.195312 C 42.878906 262.195312 45.679688 261.417969 47.488281 259.863281 C 49.320312 258.28125 50.234375 255.878906 50.234375 252.65625 C 50.234375 249.445312 49.316406 247.011719 47.488281 245.476562 C 45.679688 243.921875 42.886719 243.144531 39.105469 243.144531 L 27.832031 243.144531 M 27.832031 221.753906 L 27.832031 237.433594 L 38.234375 237.433594 C 41.667969 237.433594 44.21875 236.792969 45.886719 235.519531 C 47.578125 234.214844 48.425781 232.242188 48.425781 229.597656 C 48.425781 226.96875 47.578125 225.007812 45.886719 223.710938 C 44.195312 222.410156 41.664062 221.757812 38.234375 221.757812 L 27.832031 221.757812 M 20.804688 215.980469 L 38.757812 215.980469 C 44.117188 215.980469 48.246094 217.097656 51.144531 219.324219 C 54.042969 221.554688 55.492188 224.726562 55.492188 228.835938 C 55.492188 232.019531 54.75 234.550781 53.265625 236.433594 C 51.777344 238.320312 49.59375 239.488281 46.722656 239.953125 C 50.179688 240.695312 52.859375 242.253906 54.761719 244.589844 C 56.683594 246.9375 57.609375 249.871094 57.609375 253.402344 C 57.609375 258.046875 56.03125 261.636719 52.878906 264.167969 C 49.726562 266.699219 45.238281 267.964844 39.414062 267.964844 L 20.769531 267.964844 L 20.769531 215.960938 "/><path style=" stroke:none;fill-rule:nonzero;fill:#230f3d;fill-opacity:1;" d="M 84.109375 233.457031 C 83.316406 233.429688 82.53125 233.5 81.757812 233.667969 C 80.984375 233.835938 80.242188 234.097656 79.53125 234.449219 C 78.820312 234.800781 78.164062 235.238281 77.5625 235.753906 C 76.957031 236.269531 76.425781 236.851562 75.96875 237.496094 C 73.972656 240.171875 72.976562 243.835938 72.976562 248.507812 C 72.976562 253.175781 73.964844 256.855469 75.933594 259.550781 C 77.929688 262.226562 80.652344 263.558594 84.109375 263.558594 C 84.898438 263.582031 85.679688 263.511719 86.449219 263.34375 C 87.222656 263.171875 87.960938 262.914062 88.667969 262.558594 C 89.375 262.207031 90.03125 261.773438 90.628906 261.257812 C 91.230469 260.742188 91.757812 260.164062 92.210938 259.515625 C 94.207031 256.824219 95.203125 253.152344 95.203125 248.507812 C 95.203125 243.882812 94.207031 240.230469 92.210938 237.535156 C 90.21875 234.816406 87.519531 233.457031 84.109375 233.457031 M 84.109375 228.023438 C 89.671875 228.023438 94.082031 229.835938 97.222656 233.457031 C 100.367188 237.078125 101.992188 242.097656 101.992188 248.511719 C 101.992188 254.925781 100.402344 259.914062 97.222656 263.566406 C 94.046875 267.191406 89.671875 269 84.109375 269 C 78.515625 269 74.132812 267.1875 70.929688 263.566406 C 67.777344 259.917969 66.199219 254.902344 66.199219 248.511719 C 66.199219 242.101562 67.777344 237.085938 70.929688 233.457031 C 74.105469 229.832031 78.488281 228.023438 84.109375 228.023438 "/><path style=" stroke:none;fill-rule:nonzero;fill:#230f3d;fill-opacity:1;" d="M 127.308594 233.457031 C 126.515625 233.429688 125.730469 233.5 124.957031 233.667969 C 124.179688 233.835938 123.4375 234.097656 122.726562 234.449219 C 122.019531 234.800781 121.363281 235.238281 120.757812 235.753906 C 120.15625 236.269531 119.625 236.851562 119.167969 237.496094 C 117.171875 240.171875 116.175781 243.835938 116.175781 248.507812 C 116.175781 253.175781 117.160156 256.855469 119.132812 259.550781 C 121.125 262.226562 123.851562 263.558594 127.308594 263.558594 C 128.097656 263.582031 128.878906 263.511719 129.648438 263.34375 C 130.421875 263.171875 131.160156 262.914062 131.867188 262.558594 C 132.574219 262.207031 133.226562 261.773438 133.828125 261.257812 C 134.425781 260.742188 134.953125 260.164062 135.410156 259.515625 C 137.40625 256.824219 138.402344 253.152344 138.402344 248.507812 C 138.402344 243.882812 137.40625 240.230469 135.410156 237.535156 C 133.414062 234.816406 130.714844 233.457031 127.308594 233.457031 M 127.308594 228.023438 C 132.871094 228.023438 137.28125 229.835938 140.421875 233.457031 C 143.566406 237.078125 145.1875 242.097656 145.1875 248.511719 C 145.1875 254.925781 143.601562 259.914062 140.421875 263.566406 C 137.246094 267.191406 132.871094 269 127.308594 269 C 121.714844 269 117.332031 267.1875 114.125 263.566406 C 110.972656 259.917969 109.394531 254.902344 109.394531 248.511719 C 109.394531 242.101562 110.972656 237.085938 114.125 233.457031 C 117.304688 229.832031 121.6875 228.023438 127.308594 228.023438 "/><g clip-rule="nonzero" clip-path="url(#e750b65c49)"><path style=" stroke:none;fill-rule:nonzero;fill:#230f3d;fill-opacity:1;" d="M 161.734375 217.878906 L 161.734375 228.957031 L 174.914062 228.957031 L 174.914062 233.9375 L 161.734375 233.9375 L 161.734375 255.121094 C 161.734375 258.304688 162.164062 260.347656 163.015625 261.257812 C 163.898438 262.164062 165.671875 262.613281 168.339844 262.613281 L 174.914062 262.613281 L 174.914062 267.976562 L 168.335938 267.976562 C 163.394531 267.976562 159.984375 267.0625 158.113281 265.230469 C 156.234375 263.375 155.261719 260.003906 155.261719 255.128906 L 155.261719 233.9375 L 150.566406 233.9375 L 150.566406 228.957031 L 155.261719 228.957031 L 155.261719 217.886719 L 161.699219 217.886719 M 207.816406 230.113281 L 207.816406 236.179688 C 206.019531 235.253906 204.140625 234.558594 202.179688 234.085938 C 200.230469 233.625 198.214844 233.390625 196.125 233.390625 C 192.945312 233.390625 190.554688 233.878906 188.957031 234.820312 C 187.378906 235.792969 186.589844 237.257812 186.589844 239.207031 C 186.589844 240.695312 187.160156 241.863281 188.300781 242.722656 C 189.441406 243.558594 191.722656 244.367188 195.15625 245.128906 L 197.347656 245.617188 C 201.890625 246.589844 205.109375 247.972656 207.015625 249.761719 C 208.941406 251.527344 209.867188 254 209.867188 257.183594 C 209.890625 258.019531 209.816406 258.847656 209.636719 259.667969 C 209.457031 260.488281 209.183594 261.273438 208.808594 262.023438 C 208.4375 262.773438 207.976562 263.46875 207.433594 264.105469 C 206.886719 264.742188 206.273438 265.300781 205.59375 265.789062 C 202.742188 267.898438 198.808594 269 193.835938 269 C 191.75 269 189.570312 268.785156 187.296875 268.371094 C 185.046875 268.015625 182.667969 267.371094 180.164062 266.558594 L 180.164062 259.941406 C 182.53125 261.171875 184.859375 262.097656 187.15625 262.722656 C 189.390625 263.320312 191.664062 263.621094 193.976562 263.628906 C 196.988281 263.628906 199.308594 263.121094 200.933594 262.09375 C 202.558594 261.050781 203.371094 259.585938 203.371094 257.707031 C 203.371094 255.964844 202.777344 254.628906 201.59375 253.703125 C 200.433594 252.773438 197.871094 251.917969 193.910156 251.019531 L 191.683594 250.496094 C 187.71875 249.664062 184.851562 248.386719 183.089844 246.667969 C 181.328125 244.925781 180.445312 242.542969 180.445312 239.523438 C 180.445312 235.851562 181.746094 233.019531 184.34375 231.023438 C 186.941406 229.027344 190.628906 228.027344 195.40625 228.027344 C 197.644531 228.015625 199.871094 228.1875 202.082031 228.546875 C 204.0625 228.867188 205.988281 229.386719 207.859375 230.113281 M 226.140625 217.878906 L 226.140625 228.953125 L 239.320312 228.953125 L 239.320312 233.933594 L 226.140625 233.933594 L 226.140625 255.117188 C 226.140625 258.300781 226.570312 260.34375 227.425781 261.253906 C 228.304688 262.160156 230.078125 262.609375 232.746094 262.609375 L 239.328125 262.609375 L 239.328125 267.972656 L 232.753906 267.972656 C 227.8125 267.972656 224.402344 267.058594 222.53125 265.226562 C 220.652344 263.371094 219.679688 260 219.679688 255.125 L 219.679688 233.933594 L 214.984375 233.933594 L 214.984375 228.953125 L 219.679688 228.953125 L 219.679688 217.886719 L 226.148438 217.886719 M 269.964844 234.957031 C 269.222656 234.53125 268.433594 234.230469 267.597656 234.050781 C 266.683594 233.832031 265.757812 233.726562 264.820312 233.738281 C 261.199219 233.738281 258.417969 234.921875 256.46875 237.292969 C 254.546875 239.636719 253.621094 243.015625 253.621094 247.429688 L 253.621094 267.984375 L 247.183594 267.984375 L 247.183594 228.957031 L 253.621094 228.957031 L 253.621094 235.023438 C 254.96875 232.652344 256.71875 230.898438 258.875 229.761719 C 261.03125 228.597656 263.648438 228.019531 266.738281 228.019531 C 267.226562 228.023438 267.710938 228.058594 268.195312 228.121094 L 269.972656 228.367188 L 270.007812 234.949219 M 294.136719 248.363281 C 288.964844 248.363281 285.378906 248.957031 283.386719 250.140625 C 281.390625 251.324219 280.394531 253.34375 280.394531 256.207031 C 280.394531 258.480469 281.132812 260.292969 282.621094 261.640625 C 284.125 262.957031 286.167969 263.625 288.746094 263.625 C 292.296875 263.625 295.136719 262.371094 297.269531 259.863281 C 299.425781 257.363281 300.503906 253.976562 300.503906 249.796875 L 300.503906 248.367188 L 294.140625 248.367188 M 306.90625 245.722656 L 306.90625 267.980469 L 300.503906 267.980469 L 300.503906 262.058594 C 299.082031 264.429688 297.230469 266.183594 295.046875 267.320312 C 292.863281 268.433594 290.199219 269 287.042969 269 C 283.054688 269 279.878906 267.886719 277.511719 265.65625 C 275.167969 263.402344 274 260.394531 274 256.628906 C 274 252.242188 275.425781 248.929688 278.382812 246.703125 C 281.335938 244.472656 285.707031 243.359375 291.5625 243.359375 L 300.539062 243.359375 L 300.539062 242.730469 C 300.539062 239.78125 299.566406 237.503906 297.617188 235.902344 C 295.691406 234.277344 292.980469 233.464844 289.476562 233.464844 C 287.25 233.464844 285.082031 233.730469 282.972656 234.265625 C 280.839844 234.808594 278.8125 235.609375 276.886719 236.671875 L 276.886719 230.75 C 279.230469 229.84375 281.5 229.167969 283.703125 228.730469 C 285.824219 228.273438 287.96875 228.042969 290.140625 228.035156 C 295.773438 228.035156 299.984375 229.460938 302.769531 232.421875 C 305.550781 235.382812 306.941406 239.785156 306.941406 245.726562 M 326 262.125 L 326 282.816406 L 319.5625 282.816406 L 319.5625 228.960938 L 326 228.960938 L 326 234.882812 C 327.347656 232.5625 329.039062 230.839844 331.078125 229.726562 C 333.144531 228.585938 335.601562 228.015625 338.453125 228.015625 C 339.566406 227.988281 340.671875 228.097656 341.761719 228.335938 C 342.847656 228.574219 343.894531 228.941406 344.894531 229.433594 C 345.898438 229.921875 346.828125 230.527344 347.683594 231.242188 C 348.542969 231.957031 349.300781 232.761719 349.964844 233.660156 C 352.933594 237.421875 354.417969 242.363281 354.417969 248.5 C 354.417969 254.636719 352.933594 259.578125 349.964844 263.339844 C 349.300781 264.238281 348.542969 265.042969 347.683594 265.757812 C 346.828125 266.472656 345.898438 267.078125 344.894531 267.566406 C 343.894531 268.058594 342.847656 268.421875 341.761719 268.664062 C 340.671875 268.902344 339.566406 269.007812 338.453125 268.984375 C 335.601562 268.984375 333.109375 268.425781 331.078125 267.308594 C 329.039062 266.164062 327.347656 264.4375 326 262.117188 M 347.773438 248.496094 C 347.773438 243.78125 346.804688 240.089844 344.855469 237.417969 C 342.929688 234.726562 340.273438 233.378906 336.890625 233.378906 C 336.105469 233.351562 335.332031 233.421875 334.570312 233.589844 C 333.804688 233.761719 333.070312 234.019531 332.375 234.375 C 331.675781 234.726562 331.03125 235.160156 330.441406 235.675781 C 329.851562 236.191406 329.332031 236.773438 328.890625 237.417969 C 326.964844 240.09375 326.039062 243.785156 326.039062 248.496094 C 326.039062 253.207031 327 256.914062 328.890625 259.609375 C 330.835938 262.285156 333.503906 263.613281 336.890625 263.613281 C 340.273438 263.613281 342.929688 262.28125 344.855469 259.609375 C 346.804688 256.914062 347.773438 253.207031 347.773438 248.496094 "/></g></g></svg>