<svg xmlns="http://www.w3.org/2000/svg" xmlns:xlink="http://www.w3.org/1999/xlink" width="500" zoomAndPan="magnify" viewBox="0 0 375 374.999991" height="500" preserveAspectRatio="xMidYMid meet" version="1.2"><defs><clipPath id="897018f04c"><path d="M 69.773438 39.097656 L 305.273438 39.097656 L 305.273438 337.597656 L 69.773438 337.597656 Z M 69.773438 39.097656 "/></clipPath></defs><g id="85bc8ca362"><g clip-rule="nonzero" clip-path="url(#897018f04c)"><path style=" stroke:none;fill-rule:nonzero;fill:#ff914d;fill-opacity:1;" d="M 81.496094 309.796875 C 87.835938 315.515625 96.648438 320.550781 107.695312 324.761719 C 129.167969 332.953125 157.507812 337.464844 187.496094 337.464844 C 217.488281 337.464844 245.828125 332.953125 267.300781 324.761719 C 278.347656 320.550781 287.160156 315.515625 293.5 309.796875 C 303.1875 301.0625 305.21875 292.300781 305.21875 286.488281 L 305.21875 221.023438 C 305.21875 220.835938 305.214844 220.652344 305.203125 220.46875 C 305.214844 220.175781 305.21875 219.886719 305.21875 219.605469 L 305.21875 91.507812 C 305.21875 91.320312 305.214844 91.136719 305.203125 90.953125 C 305.214844 90.660156 305.21875 90.367188 305.21875 90.089844 C 305.21875 84.277344 303.1875 75.515625 293.5 66.78125 C 287.160156 61.0625 278.347656 56.027344 267.300781 51.816406 C 245.828125 43.625 217.488281 39.113281 187.496094 39.113281 C 157.507812 39.113281 129.167969 43.625 107.695312 51.816406 C 96.652344 56.027344 87.835938 61.0625 81.496094 66.78125 C 71.808594 75.515625 69.777344 84.277344 69.777344 90.089844 C 69.777344 90.367188 69.78125 90.65625 69.792969 90.953125 C 69.78125 91.132812 69.777344 91.320312 69.777344 91.503906 L 69.777344 219.605469 C 69.777344 219.886719 69.78125 220.175781 69.792969 220.46875 C 69.78125 220.652344 69.777344 220.835938 69.777344 221.023438 L 69.777344 286.488281 C 69.777344 292.300781 71.808594 301.0625 81.496094 309.796875 Z M 114.691406 70.152344 C 133.984375 62.792969 159.839844 58.738281 187.5 58.738281 C 215.15625 58.738281 241.011719 62.792969 260.304688 70.152344 C 275.667969 76.011719 285.597656 83.835938 285.597656 90.089844 C 285.597656 96.339844 275.667969 104.164062 260.304688 110.023438 C 241.011719 117.382812 215.15625 121.4375 187.5 121.4375 C 159.839844 121.4375 133.984375 117.382812 114.691406 110.023438 C 99.328125 104.164062 89.402344 96.339844 89.402344 90.089844 C 89.402344 83.835938 99.328125 76.011719 114.691406 70.152344 Z M 89.402344 154.136719 L 89.402344 119.363281 C 94.558594 122.671875 100.675781 125.683594 107.695312 128.363281 C 129.167969 136.550781 157.507812 141.0625 187.496094 141.0625 C 217.488281 141.0625 245.828125 136.550781 267.300781 128.363281 C 274.320312 125.683594 280.4375 122.671875 285.59375 119.363281 L 285.59375 156.972656 C 285.59375 163.222656 275.667969 171.050781 260.304688 176.910156 C 241.011719 184.269531 215.15625 188.320312 187.496094 188.320312 C 159.839844 188.320312 133.984375 184.269531 114.691406 176.910156 C 99.328125 171.050781 89.398438 163.222656 89.398438 156.972656 L 89.398438 154.136719 Z M 89.402344 186.25 C 94.558594 189.554688 100.675781 192.566406 107.695312 195.246094 C 129.167969 203.4375 157.507812 207.945312 187.496094 207.945312 C 217.488281 207.945312 245.828125 203.4375 267.300781 195.246094 C 274.320312 192.566406 280.4375 189.554688 285.59375 186.25 L 285.59375 219.605469 C 285.59375 225.855469 275.667969 233.679688 260.304688 239.542969 C 241.011719 246.902344 215.15625 250.953125 187.496094 250.953125 C 159.839844 250.953125 133.984375 246.898438 114.691406 239.542969 C 99.328125 233.679688 89.398438 225.855469 89.398438 219.605469 L 89.398438 186.25 Z M 89.402344 248.878906 C 94.558594 252.1875 100.675781 255.199219 107.695312 257.878906 C 129.167969 266.066406 157.507812 270.578125 187.496094 270.578125 C 217.488281 270.578125 245.828125 266.066406 267.300781 257.878906 C 274.320312 255.199219 280.4375 252.1875 285.59375 248.878906 L 285.59375 286.488281 C 285.59375 292.738281 275.667969 300.566406 260.304688 306.425781 C 241.011719 313.785156 215.15625 317.835938 187.496094 317.835938 C 159.839844 317.835938 133.984375 313.785156 114.691406 306.425781 C 99.328125 300.566406 89.398438 292.738281 89.398438 286.488281 L 89.398438 248.878906 Z M 89.402344 248.878906 "/></g></g></svg>