<svg xmlns="http://www.w3.org/2000/svg" xmlns:xlink="http://www.w3.org/1999/xlink" width="500" zoomAndPan="magnify" viewBox="0 0 375 374.999991" height="500" preserveAspectRatio="xMidYMid meet" version="1.2"><defs><clipPath id="0c015e1715"><path d="M 8 4.398438 L 366.992188 4.398438 L 366.992188 363.390625 L 8 363.390625 Z M 8 4.398438 "/></clipPath><clipPath id="46cbdebdac"><path d="M 187.496094 4.398438 C 88.363281 4.398438 8 84.761719 8 183.894531 C 8 283.027344 88.363281 363.390625 187.496094 363.390625 C 286.628906 363.390625 366.992188 283.027344 366.992188 183.894531 C 366.992188 84.761719 286.628906 4.398438 187.496094 4.398438 Z M 187.496094 4.398438 "/></clipPath><clipPath id="88ebda1a49"><path d="M 57.1875 114.527344 L 166.6875 114.527344 L 166.6875 253.277344 L 57.1875 253.277344 Z M 57.1875 114.527344 "/></clipPath></defs><g id="27905fa4f9"><g clip-rule="nonzero" clip-path="url(#0c015e1715)"><g clip-rule="nonzero" clip-path="url(#46cbdebdac)"><path style="fill:none;stroke-width:54;stroke-linecap:butt;stroke-linejoin:miter;stroke:#000000;stroke-opacity:1;stroke-miterlimit:4;" d="M 239.326854 -0.000591322 C 107.149762 -0.000591322 -0.00128647 107.150457 -0.00128647 239.327549 C -0.00128647 371.504641 107.149762 478.65569 239.326854 478.65569 C 371.503946 478.65569 478.654995 371.504641 478.654995 239.327549 C 478.654995 107.150457 371.503946 -0.000591322 239.326854 -0.000591322 Z M 239.326854 -0.000591322 " transform="matrix(0.75,0,0,0.75,8.000965,4.398881)"/></g></g><g clip-rule="nonzero" clip-path="url(#88ebda1a49)"><path style=" stroke:none;fill-rule:nonzero;fill:#000000;fill-opacity:1;" d="M 62.636719 240.398438 C 65.585938 243.054688 69.6875 245.394531 74.824219 247.355469 C 84.808594 251.164062 97.988281 253.261719 111.9375 253.261719 C 125.886719 253.261719 139.066406 251.164062 149.050781 247.355469 C 154.1875 245.394531 158.289062 243.054688 161.238281 240.398438 C 165.742188 236.335938 166.6875 232.261719 166.6875 229.558594 L 166.6875 199.117188 C 166.6875 199.03125 166.683594 198.945312 166.679688 198.859375 C 166.683594 198.722656 166.6875 198.589844 166.6875 198.460938 L 166.6875 138.898438 C 166.6875 138.8125 166.683594 138.726562 166.679688 138.640625 C 166.683594 138.503906 166.6875 138.367188 166.6875 138.238281 C 166.6875 135.535156 165.742188 131.460938 161.238281 127.402344 C 158.289062 124.742188 154.1875 122.402344 149.050781 120.441406 C 139.066406 116.632812 125.886719 114.535156 111.9375 114.535156 C 97.988281 114.535156 84.808594 116.632812 74.824219 120.441406 C 69.6875 122.402344 65.585938 124.742188 62.636719 127.398438 C 58.132812 131.460938 57.1875 135.535156 57.1875 138.238281 C 57.1875 138.367188 57.191406 138.503906 57.195312 138.640625 C 57.191406 138.726562 57.1875 138.808594 57.1875 138.898438 L 57.1875 198.460938 C 57.1875 198.589844 57.191406 198.726562 57.195312 198.859375 C 57.191406 198.945312 57.1875 199.03125 57.1875 199.117188 L 57.1875 229.558594 C 57.1875 232.261719 58.132812 236.335938 62.636719 240.398438 Z M 78.078125 128.96875 C 87.050781 125.546875 99.074219 123.660156 111.9375 123.660156 C 124.800781 123.660156 136.828125 125.546875 145.800781 128.96875 C 152.945312 131.691406 157.5625 135.332031 157.5625 138.238281 C 157.5625 141.144531 152.945312 144.785156 145.800781 147.507812 C 136.828125 150.929688 124.800781 152.8125 111.9375 152.8125 C 99.074219 152.8125 87.050781 150.929688 78.078125 147.507812 C 70.929688 144.785156 66.3125 141.144531 66.3125 138.238281 C 66.3125 135.332031 70.929688 131.691406 78.078125 128.96875 Z M 66.3125 168.019531 L 66.3125 151.851562 C 68.710938 153.386719 71.558594 154.789062 74.824219 156.035156 C 84.808594 159.84375 97.988281 161.941406 111.9375 161.941406 C 125.886719 161.941406 139.066406 159.84375 149.050781 156.035156 C 152.316406 154.789062 155.164062 153.386719 157.5625 151.851562 L 157.5625 169.335938 C 157.5625 172.242188 152.945312 175.882812 145.796875 178.609375 C 136.824219 182.03125 124.800781 183.914062 111.9375 183.914062 C 99.074219 183.914062 87.050781 182.03125 78.074219 178.609375 C 70.929688 175.882812 66.3125 172.242188 66.3125 169.335938 Z M 66.3125 182.949219 C 68.710938 184.488281 71.558594 185.886719 74.824219 187.132812 C 84.808594 190.941406 97.988281 193.039062 111.9375 193.039062 C 125.886719 193.039062 139.066406 190.941406 149.050781 187.132812 C 152.316406 185.886719 155.164062 184.488281 157.5625 182.949219 L 157.5625 198.460938 C 157.5625 201.367188 152.945312 205.003906 145.796875 207.730469 C 136.824219 211.152344 124.800781 213.035156 111.9375 213.035156 C 99.074219 213.035156 87.050781 211.152344 78.074219 207.730469 C 70.929688 205.003906 66.3125 201.367188 66.3125 198.460938 Z M 66.3125 212.074219 C 68.710938 213.609375 71.558594 215.011719 74.824219 216.257812 C 84.808594 220.0625 97.988281 222.160156 111.9375 222.160156 C 125.886719 222.160156 139.066406 220.0625 149.050781 216.257812 C 152.316406 215.011719 155.164062 213.609375 157.5625 212.074219 L 157.5625 229.558594 C 157.5625 232.464844 152.945312 236.105469 145.796875 238.828125 C 136.824219 242.25 124.800781 244.136719 111.9375 244.136719 C 99.074219 244.136719 87.050781 242.25 78.074219 238.828125 C 70.929688 236.105469 66.3125 232.464844 66.3125 229.558594 Z M 66.3125 212.074219 "/></g><g style="fill:#000000;fill-opacity:1;"><g transform="translate(176.260774, 234.993383)"><path style="stroke:none" d="M 24.109375 -27.109375 C 17.066406 -28.046875 11.84375 -29.914062 8.4375 -32.71875 C 5.03125 -35.519531 3.328125 -39.859375 3.328125 -45.734375 L 3.328125 -46.65625 C 3.328125 -52.53125 5.296875 -57.210938 9.234375 -60.703125 C 13.171875 -64.191406 18.820312 -65.9375 26.1875 -65.9375 C 34.175781 -65.9375 40 -64.117188 43.65625 -60.484375 C 47.3125 -56.859375 49.140625 -51.25 49.140625 -43.65625 L 49.140625 -41.90625 L 35.671875 -41.90625 C 35.671875 -46.175781 34.960938 -49.304688 33.546875 -51.296875 C 32.140625 -53.296875 29.71875 -54.296875 26.28125 -54.296875 L 25.53125 -54.296875 C 22.8125 -54.296875 20.703125 -53.628906 19.203125 -52.296875 C 17.710938 -50.972656 16.96875 -49.257812 16.96875 -47.15625 L 16.96875 -46.734375 C 16.96875 -45.179688 17.253906 -43.847656 17.828125 -42.734375 C 18.410156 -41.628906 19.519531 -40.71875 21.15625 -40 C 22.789062 -39.28125 25.191406 -38.695312 28.359375 -38.25 C 35.453125 -37.3125 40.769531 -35.453125 44.3125 -32.671875 C 47.863281 -29.898438 49.640625 -25.492188 49.640625 -19.453125 L 49.640625 -18.625 C 49.640625 -12.414062 47.628906 -7.578125 43.609375 -4.109375 C 39.597656 -0.648438 33.789062 1.078125 26.1875 1.078125 C 18.539062 1.078125 12.734375 -0.707031 8.765625 -4.28125 C 4.804688 -7.851562 2.828125 -13.550781 2.828125 -21.375 L 2.828125 -22.125 L 16.296875 -22.125 C 16.296875 -18.070312 17.113281 -15.128906 18.75 -13.296875 C 20.382812 -11.472656 22.753906 -10.5625 25.859375 -10.5625 L 26.609375 -10.5625 C 29.710938 -10.5625 32.039062 -11.296875 33.59375 -12.765625 C 35.144531 -14.234375 35.921875 -16.050781 35.921875 -18.21875 L 35.921875 -18.625 C 35.921875 -20.175781 35.585938 -21.503906 34.921875 -22.609375 C 34.253906 -23.722656 33.078125 -24.65625 31.390625 -25.40625 C 29.703125 -26.15625 27.273438 -26.722656 24.109375 -27.109375 Z M 24.109375 -27.109375 "/></g></g><g style="fill:#000000;fill-opacity:1;"><g transform="translate(228.732309, 234.993383)"><path style="stroke:none" d="M 27.9375 1.078125 C 19.570312 1.078125 13.363281 -1.425781 9.3125 -6.4375 C 5.269531 -11.457031 3.25 -19.566406 3.25 -30.765625 L 3.25 -34.09375 C 3.25 -45.34375 5.269531 -53.460938 9.3125 -58.453125 C 13.363281 -63.441406 19.570312 -65.9375 27.9375 -65.9375 C 36.363281 -65.9375 42.597656 -63.441406 46.640625 -58.453125 C 50.691406 -53.460938 52.71875 -45.34375 52.71875 -34.09375 L 52.71875 -30.765625 C 52.71875 -22.835938 51.707031 -16.472656 49.6875 -11.671875 C 47.664062 -6.878906 44.570312 -3.457031 40.40625 -1.40625 L 44.328125 8.3125 L 33.84375 8.3125 L 31.015625 0.921875 C 30.515625 0.972656 30.015625 1.007812 29.515625 1.03125 C 29.015625 1.0625 28.488281 1.078125 27.9375 1.078125 Z M 32.34375 -21.78125 L 35.5 -13.71875 C 36.78125 -15.320312 37.679688 -17.566406 38.203125 -20.453125 C 38.734375 -23.335938 39 -26.773438 39 -30.765625 L 39 -34.09375 C 39 -40.582031 38.265625 -45.570312 36.796875 -49.0625 C 35.328125 -52.550781 32.515625 -54.296875 28.359375 -54.296875 L 27.609375 -54.296875 C 23.453125 -54.296875 20.625 -52.550781 19.125 -49.0625 C 17.625 -45.570312 16.875 -40.582031 16.875 -34.09375 L 16.875 -30.765625 C 16.875 -24.554688 17.550781 -19.71875 18.90625 -16.25 C 20.269531 -12.789062 22.8125 -10.894531 26.53125 -10.5625 L 22.203125 -21.78125 Z M 32.34375 -21.78125 "/></g></g><g style="fill:#000000;fill-opacity:1;"><g transform="translate(284.696409, 234.993383)"><path style="stroke:none" d="M 42.078125 0 L 4.65625 0 L 4.65625 -64.859375 L 18.125 -64.859375 L 18.125 -11.640625 L 42.078125 -11.640625 Z M 42.078125 0 "/></g></g></g></svg>