<svg xmlns="http://www.w3.org/2000/svg" xmlns:xlink="http://www.w3.org/1999/xlink" width="500" zoomAndPan="magnify" viewBox="0 0 375 374.999991" height="500" preserveAspectRatio="xMidYMid meet" version="1.2"><defs><clipPath id="1445d569a8"><path d="M 24.941406 24.941406 L 349.691406 24.941406 L 349.691406 349.691406 L 24.941406 349.691406 Z M 24.941406 24.941406 "/></clipPath></defs><g id="9476cd0a77"><rect x="0" width="375" y="0" height="374.999991" style="fill:#ffffff;fill-opacity:1;stroke:none;"/><rect x="0" width="375" y="0" height="374.999991" style="fill:#ffffff;fill-opacity:1;stroke:none;"/><g clip-rule="nonzero" clip-path="url(#1445d569a8)"><path style=" stroke:none;fill-rule:nonzero;fill:#f03c2e;fill-opacity:1;" d="M 343.5625 172.855469 L 201.777344 31.070312 C 201.292969 30.585938 200.785156 30.125 200.257812 29.691406 C 199.726562 29.257812 199.179688 28.847656 198.609375 28.46875 C 198.039062 28.089844 197.453125 27.734375 196.847656 27.414062 C 196.246094 27.089844 195.625 26.796875 194.992188 26.535156 C 194.359375 26.273438 193.714844 26.042969 193.0625 25.84375 C 192.40625 25.644531 191.742188 25.480469 191.070312 25.34375 C 190.398438 25.210938 189.722656 25.109375 189.039062 25.042969 C 188.359375 24.976562 187.675781 24.941406 186.992188 24.941406 C 186.304688 24.941406 185.621094 24.976562 184.941406 25.042969 C 184.257812 25.109375 183.582031 25.210938 182.910156 25.34375 C 182.238281 25.480469 181.574219 25.644531 180.921875 25.84375 C 180.265625 26.042969 179.621094 26.273438 178.988281 26.535156 C 178.355469 26.796875 177.738281 27.089844 177.132812 27.414062 C 176.527344 27.734375 175.941406 28.089844 175.371094 28.46875 C 174.804688 28.847656 174.253906 29.257812 173.722656 29.691406 C 173.195312 30.125 172.6875 30.585938 172.203125 31.070312 L 142.773438 60.5 L 180.121094 97.847656 C 188.808594 94.800781 198.753906 96.882812 205.671875 103.804688 C 206.492188 104.625 207.25 105.5 207.949219 106.425781 C 208.644531 107.355469 209.277344 108.324219 209.835938 109.339844 C 210.398438 110.355469 210.886719 111.40625 211.300781 112.488281 C 211.714844 113.574219 212.050781 114.679688 212.3125 115.8125 C 212.570312 116.941406 212.75 118.085938 212.847656 119.242188 C 212.949219 120.398438 212.964844 121.554688 212.902344 122.710938 C 212.839844 123.871094 212.699219 125.019531 212.476562 126.15625 C 212.25 127.296875 211.949219 128.414062 211.570312 129.511719 L 247.566406 165.507812 C 256.273438 162.503906 266.320312 164.441406 273.273438 171.414062 C 273.847656 171.988281 274.394531 172.59375 274.914062 173.222656 C 275.429688 173.851562 275.917969 174.507812 276.371094 175.183594 C 276.824219 175.863281 277.242188 176.5625 277.625 177.28125 C 278.011719 178 278.359375 178.734375 278.671875 179.488281 C 278.984375 180.242188 279.257812 181.007812 279.496094 181.789062 C 279.734375 182.570312 279.929688 183.359375 280.089844 184.160156 C 280.25 184.957031 280.367188 185.765625 280.449219 186.574219 C 280.527344 187.386719 280.570312 188.199219 280.570312 189.015625 C 280.570312 189.832031 280.527344 190.644531 280.449219 191.457031 C 280.371094 192.269531 280.25 193.074219 280.089844 193.875 C 279.929688 194.671875 279.734375 195.464844 279.496094 196.242188 C 279.261719 197.023438 278.984375 197.789062 278.675781 198.542969 C 278.363281 199.296875 278.011719 200.035156 277.628906 200.753906 C 277.246094 201.472656 276.824219 202.171875 276.371094 202.847656 C 275.917969 203.527344 275.433594 204.179688 274.917969 204.8125 C 274.398438 205.441406 273.851562 206.042969 273.277344 206.621094 C 272.699219 207.199219 272.097656 207.746094 271.464844 208.261719 C 270.835938 208.777344 270.179688 209.265625 269.503906 209.71875 C 268.824219 210.167969 268.125 210.589844 267.40625 210.972656 C 266.6875 211.355469 265.949219 211.703125 265.199219 212.015625 C 264.445312 212.328125 263.675781 212.601562 262.898438 212.839844 C 262.117188 213.074219 261.328125 213.273438 260.527344 213.433594 C 259.726562 213.589844 258.921875 213.710938 258.109375 213.789062 C 257.296875 213.871094 256.484375 213.910156 255.667969 213.910156 C 254.855469 213.910156 254.039062 213.867188 253.230469 213.789062 C 252.417969 213.707031 251.613281 213.585938 250.8125 213.429688 C 250.011719 213.269531 249.222656 213.070312 248.441406 212.832031 C 247.660156 212.597656 246.894531 212.320312 246.140625 212.007812 C 245.390625 211.695312 244.652344 211.347656 243.933594 210.964844 C 243.214844 210.578125 242.515625 210.160156 241.839844 209.707031 C 241.160156 209.253906 240.507812 208.765625 239.878906 208.25 C 239.246094 207.730469 238.644531 207.183594 238.066406 206.609375 C 230.761719 199.300781 228.953125 188.542969 232.648438 179.542969 L 199.078125 145.96875 L 199.078125 234.3125 C 201.53125 235.527344 203.730469 237.097656 205.671875 239.023438 C 206.25 239.597656 206.796875 240.199219 207.3125 240.832031 C 207.832031 241.460938 208.316406 242.113281 208.769531 242.792969 C 209.222656 243.46875 209.640625 244.167969 210.023438 244.886719 C 210.410156 245.605469 210.757812 246.34375 211.070312 247.09375 C 211.378906 247.847656 211.65625 248.613281 211.890625 249.394531 C 212.128906 250.175781 212.324219 250.964844 212.484375 251.765625 C 212.644531 252.5625 212.761719 253.367188 212.84375 254.179688 C 212.921875 254.992188 212.960938 255.804688 212.960938 256.617188 C 212.960938 257.433594 212.921875 258.246094 212.84375 259.058594 C 212.761719 259.871094 212.644531 260.675781 212.484375 261.472656 C 212.324219 262.273438 212.128906 263.0625 211.890625 263.84375 C 211.65625 264.625 211.378906 265.390625 211.070312 266.140625 C 210.757812 266.894531 210.410156 267.632812 210.023438 268.351562 C 209.640625 269.070312 209.222656 269.765625 208.769531 270.445312 C 208.316406 271.121094 207.832031 271.777344 207.3125 272.40625 C 206.796875 273.035156 206.25 273.640625 205.671875 274.214844 C 205.097656 274.792969 204.496094 275.339844 203.863281 275.855469 C 203.234375 276.375 202.582031 276.859375 201.902344 277.3125 C 201.226562 277.765625 200.527344 278.183594 199.808594 278.566406 C 199.089844 278.949219 198.351562 279.300781 197.601562 279.609375 C 196.847656 279.921875 196.082031 280.195312 195.300781 280.433594 C 194.519531 280.671875 193.730469 280.867188 192.929688 281.027344 C 192.132812 281.1875 191.328125 281.304688 190.515625 281.386719 C 189.703125 281.464844 188.890625 281.503906 188.078125 281.503906 C 187.261719 281.503906 186.449219 281.464844 185.636719 281.386719 C 184.824219 281.304688 184.019531 281.1875 183.222656 281.027344 C 182.421875 280.867188 181.632812 280.671875 180.851562 280.433594 C 180.074219 280.195312 179.304688 279.921875 178.554688 279.609375 C 177.800781 279.300781 177.0625 278.949219 176.34375 278.566406 C 175.625 278.183594 174.929688 277.765625 174.25 277.3125 C 173.574219 276.859375 172.917969 276.375 172.289062 275.855469 C 171.660156 275.339844 171.054688 274.792969 170.480469 274.214844 C 169.902344 273.640625 169.355469 273.039062 168.835938 272.40625 C 168.320312 271.777344 167.832031 271.125 167.378906 270.445312 C 166.925781 269.769531 166.507812 269.070312 166.125 268.351562 C 165.738281 267.632812 165.390625 266.898438 165.078125 266.144531 C 164.765625 265.390625 164.492188 264.625 164.253906 263.84375 C 164.015625 263.066406 163.820312 262.273438 163.660156 261.476562 C 163.5 260.675781 163.378906 259.871094 163.300781 259.058594 C 163.21875 258.246094 163.179688 257.433594 163.179688 256.617188 C 163.179688 255.804688 163.21875 254.992188 163.300781 254.179688 C 163.378906 253.367188 163.5 252.5625 163.660156 251.761719 C 163.820312 250.964844 164.015625 250.171875 164.253906 249.394531 C 164.492188 248.613281 164.765625 247.847656 165.078125 247.09375 C 165.390625 246.339844 165.738281 245.605469 166.125 244.886719 C 166.507812 244.167969 166.925781 243.46875 167.378906 242.792969 C 167.832031 242.113281 168.320312 241.460938 168.835938 240.832031 C 169.355469 240.199219 169.902344 239.597656 170.480469 239.023438 C 172.882812 236.625 175.554688 234.808594 178.628906 233.59375 L 178.628906 144.429688 C 175.664062 143.210938 172.882812 141.414062 170.480469 139 C 169.609375 138.128906 168.808594 137.203125 168.078125 136.21875 C 167.347656 135.230469 166.691406 134.195312 166.113281 133.113281 C 165.535156 132.03125 165.039062 130.910156 164.628906 129.753906 C 164.214844 128.597656 163.890625 127.414062 163.65625 126.210938 C 163.417969 125.007812 163.269531 123.789062 163.210938 122.5625 C 163.15625 121.335938 163.1875 120.113281 163.3125 118.890625 C 163.4375 117.671875 163.652344 116.464844 163.953125 115.273438 C 164.257812 114.085938 164.644531 112.921875 165.121094 111.789062 L 128.28125 74.972656 L 31.058594 172.09375 C 30.574219 172.578125 30.113281 173.082031 29.679688 173.613281 C 29.246094 174.140625 28.835938 174.691406 28.457031 175.261719 C 28.074219 175.832031 27.722656 176.417969 27.398438 177.023438 C 27.078125 177.625 26.785156 178.246094 26.523438 178.878906 C 26.257812 179.511719 26.027344 180.15625 25.828125 180.8125 C 25.628906 181.464844 25.464844 182.128906 25.332031 182.800781 C 25.195312 183.472656 25.097656 184.152344 25.027344 184.832031 C 24.960938 185.515625 24.929688 186.199219 24.929688 186.882812 C 24.929688 187.570312 24.960938 188.253906 25.027344 188.933594 C 25.097656 189.617188 25.195312 190.292969 25.332031 190.964844 C 25.464844 191.636719 25.628906 192.300781 25.828125 192.957031 C 26.027344 193.613281 26.257812 194.257812 26.523438 194.890625 C 26.785156 195.523438 27.078125 196.140625 27.398438 196.746094 C 27.722656 197.351562 28.074219 197.9375 28.457031 198.507812 C 28.835938 199.074219 29.246094 199.625 29.679688 200.15625 C 30.113281 200.683594 30.574219 201.191406 31.058594 201.675781 L 172.855469 343.449219 C 173.339844 343.933594 173.84375 344.394531 174.375 344.828125 C 174.902344 345.261719 175.453125 345.667969 176.023438 346.050781 C 176.589844 346.429688 177.179688 346.78125 177.78125 347.105469 C 178.386719 347.429688 179.003906 347.722656 179.636719 347.984375 C 180.269531 348.246094 180.914062 348.476562 181.570312 348.675781 C 182.226562 348.875 182.886719 349.039062 183.558594 349.171875 C 184.230469 349.308594 184.910156 349.40625 185.589844 349.476562 C 186.273438 349.542969 186.957031 349.574219 187.640625 349.574219 C 188.324219 349.574219 189.007812 349.542969 189.691406 349.476562 C 190.371094 349.40625 191.046875 349.308594 191.71875 349.171875 C 192.390625 349.039062 193.054688 348.875 193.710938 348.675781 C 194.367188 348.476562 195.011719 348.246094 195.644531 347.984375 C 196.277344 347.722656 196.894531 347.429688 197.496094 347.105469 C 198.101562 346.78125 198.6875 346.429688 199.257812 346.050781 C 199.828125 345.667969 200.375 345.261719 200.90625 344.828125 C 201.433594 344.394531 201.941406 343.933594 202.425781 343.449219 L 343.5625 202.539062 C 344.046875 202.054688 344.503906 201.546875 344.941406 201.015625 C 345.375 200.488281 345.78125 199.9375 346.164062 199.367188 C 346.546875 198.800781 346.898438 198.210938 347.21875 197.609375 C 347.542969 197.003906 347.835938 196.386719 348.097656 195.753906 C 348.359375 195.121094 348.59375 194.476562 348.789062 193.820312 C 348.988281 193.164062 349.15625 192.5 349.289062 191.828125 C 349.425781 191.15625 349.523438 190.480469 349.589844 189.796875 C 349.660156 189.117188 349.691406 188.433594 349.691406 187.746094 C 349.691406 187.0625 349.660156 186.378906 349.589844 185.695312 C 349.523438 185.015625 349.425781 184.335938 349.289062 183.664062 C 349.15625 182.992188 348.988281 182.328125 348.789062 181.671875 C 348.59375 181.019531 348.359375 180.375 348.097656 179.742188 C 347.835938 179.109375 347.542969 178.488281 347.21875 177.886719 C 346.898438 177.28125 346.546875 176.695312 346.164062 176.125 C 345.78125 175.554688 345.375 175.003906 344.941406 174.476562 C 344.503906 173.945312 344.046875 173.4375 343.5625 172.957031 "/></g></g></svg>