<svg xmlns="http://www.w3.org/2000/svg" xmlns:xlink="http://www.w3.org/1999/xlink" width="500" zoomAndPan="magnify" viewBox="0 0 375 374.999991" height="500" preserveAspectRatio="xMidYMid meet" version="1.2"><defs><clipPath id="5502f3b8b3"><path d="M 37.5 26.109375 L 330.75 26.109375 L 330.75 354.609375 L 37.5 354.609375 Z M 37.5 26.109375 "/></clipPath></defs><g id="086d6eb511"><g clip-rule="nonzero" clip-path="url(#5502f3b8b3)"><path style=" stroke:none;fill-rule:nonzero;fill:#000000;fill-opacity:1;" d="M 329.136719 28.839844 C 327.78125 27.363281 325.875 26.523438 323.871094 26.523438 L 45.089844 26.523438 C 43.085938 26.523438 41.183594 27.363281 39.824219 28.839844 C 38.46875 30.3125 37.808594 32.292969 37.984375 34.28125 L 63.101562 315.132812 C 63.363281 318.066406 65.414062 320.539062 68.253906 321.351562 L 182.492188 353.925781 C 183.125 354.105469 183.78125 354.195312 184.445312 354.195312 C 185.109375 354.195312 185.765625 354.105469 186.402344 353.925781 L 300.734375 321.351562 C 303.574219 320.539062 305.621094 318.066406 305.882812 315.132812 L 330.984375 34.28125 C 331.15625 32.289062 330.484375 30.3125 329.136719 28.839844 Z M 269.011719 125.671875 L 134.792969 125.671875 L 137.984375 161.929688 L 265.777344 161.929688 L 256.195312 269.066406 L 184.4375 290.726562 L 183.734375 290.515625 L 112.796875 269.058594 L 108.929688 225.394531 L 143.667969 225.394531 L 145.195312 242.347656 L 184.839844 250.636719 L 223.773438 242.332031 L 227.917969 196.492188 L 106.316406 196.492188 L 96.890625 91.019531 L 272.121094 91.019531 Z M 269.011719 125.671875 "/></g></g></svg>