<svg xmlns="http://www.w3.org/2000/svg" xmlns:xlink="http://www.w3.org/1999/xlink" width="500" zoomAndPan="magnify" viewBox="0 0 375 374.999991" height="500" preserveAspectRatio="xMidYMid meet" version="1.2"><defs><clipPath id="75ec0d5a72"><path d="M 37.5 26.109375 L 330.75 26.109375 L 330.75 354.609375 L 37.5 354.609375 Z M 37.5 26.109375 "/></clipPath></defs><g id="6d5cf1a4be"><g clip-rule="nonzero" clip-path="url(#75ec0d5a72)"><path style=" stroke:none;fill-rule:nonzero;fill:#ff731d;fill-opacity:1;" d="M 328.65625 28.839844 C 327.304688 27.363281 325.402344 26.523438 323.402344 26.523438 L 45.078125 26.523438 C 43.078125 26.523438 41.175781 27.363281 39.820312 28.839844 C 38.46875 30.3125 37.804688 32.292969 37.984375 34.28125 L 63.058594 315.132812 C 63.320312 318.066406 65.367188 320.539062 68.203125 321.351562 L 182.253906 353.925781 C 182.886719 354.105469 183.542969 354.195312 184.203125 354.195312 C 184.867188 354.195312 185.523438 354.105469 186.15625 353.925781 L 300.300781 321.351562 C 303.136719 320.539062 305.179688 318.066406 305.441406 315.132812 L 330.503906 34.28125 C 330.671875 32.289062 330.003906 30.3125 328.65625 28.839844 Z M 268.628906 125.671875 L 134.632812 125.671875 L 137.816406 161.929688 L 265.402344 161.929688 L 255.835938 269.066406 L 184.199219 290.726562 L 183.492188 290.515625 L 112.671875 269.058594 L 108.8125 225.394531 L 143.496094 225.394531 L 145.019531 242.347656 L 184.597656 250.636719 L 223.46875 242.332031 L 227.605469 196.492188 L 106.203125 196.492188 L 96.792969 91.019531 L 271.734375 91.019531 Z M 268.628906 125.671875 "/></g></g></svg>