<svg xmlns="http://www.w3.org/2000/svg" xmlns:xlink="http://www.w3.org/1999/xlink" width="500" zoomAndPan="magnify" viewBox="0 0 375 374.999991" height="500" preserveAspectRatio="xMidYMid meet" version="1.2"><defs><clipPath id="8fd83f1452"><path d="M 156 12.550781 L 243 12.550781 L 243 155 L 156 155 Z M 156 12.550781 "/></clipPath><clipPath id="84e28e0e67"><path d="M 102 266 L 283 266 L 283 362.800781 L 102 362.800781 Z M 102 266 "/></clipPath></defs><g id="d3cda3ca02"><path style=" stroke:none;fill-rule:nonzero;fill:#000000;fill-opacity:1;" d="M 156.128906 200.734375 C 156.128906 200.734375 146.789062 206.417969 162.628906 208.042969 C 181.761719 210.480469 191.875 210.074219 212.996094 206.015625 C 212.996094 206.015625 218.679688 209.675781 226.398438 212.515625 C 178.871094 232.824219 118.757812 211.296875 156.128906 200.734375 Z M 150.039062 174.332031 C 150.039062 174.332031 139.882812 182.050781 155.722656 183.671875 C 176.433594 185.703125 192.6875 186.109375 220.714844 180.429688 C 220.714844 180.429688 224.375 184.492188 230.464844 186.519531 C 173.195312 203.582031 109.011719 188.144531 150.039062 174.335938 Z M 262.144531 220.636719 C 262.144531 220.636719 269.050781 226.324219 254.425781 230.792969 C 227.210938 238.914062 140.289062 241.355469 115.917969 230.792969 C 107.390625 227.132812 123.636719 221.851562 128.914062 221.042969 C 134.195312 219.828125 137.035156 219.828125 137.035156 219.828125 C 127.695312 213.324219 74.890625 233.230469 110.226562 238.957031 C 207.304688 254.804688 287.328125 232.054688 262.140625 220.679688 Z M 160.597656 146.707031 C 160.597656 146.707031 116.320312 157.269531 144.75 160.921875 C 156.9375 162.542969 180.902344 162.140625 203.242188 160.515625 C 221.519531 158.894531 239.839844 155.640625 239.839844 155.640625 C 239.839844 155.640625 233.339844 158.484375 228.875 161.328125 C 183.75 173.117188 97.230469 167.835938 122.011719 155.648438 C 143.136719 145.492188 160.597656 146.707031 160.597656 146.707031 Z M 239.800781 190.984375 C 285.300781 167.421875 264.171875 144.679688 249.546875 147.523438 C 245.890625 148.332031 244.265625 149.144531 244.265625 149.144531 C 244.265625 149.144531 245.484375 146.707031 248.332031 145.902344 C 277.167969 135.746094 299.917969 176.363281 238.988281 192.207031 C 238.988281 192.207031 239.398438 191.800781 239.800781 190.988281 Z M 165.0625 255.15625 C 208.933594 258 275.953125 253.535156 277.582031 232.816406 C 277.582031 232.816406 274.335938 240.9375 241.429688 247.03125 C 204.0625 253.933594 157.753906 253.121094 130.539062 248.652344 C 130.539062 248.652344 136.226562 253.527344 165.066406 255.152344 Z M 165.0625 255.15625 "/><g clip-rule="nonzero" clip-path="url(#8fd83f1452)"><path style=" stroke:none;fill-rule:nonzero;fill:#000000;fill-opacity:1;" d="M 212.144531 12.664062 C 212.144531 12.664062 237.324219 38.253906 188.179688 76.835938 C 148.777344 108.113281 179.238281 125.988281 188.179688 146.292969 C 165.027344 125.578125 148.378906 107.296875 159.746094 90.238281 C 176.4375 65.066406 222.332031 52.882812 212.144531 12.664062 Z M 199.144531 129.238281 C 210.925781 142.644531 195.902344 154.828125 195.902344 154.828125 C 195.902344 154.828125 225.960938 139.398438 212.152344 120.300781 C 199.558594 102.023438 189.808594 93.085938 242.617188 62.617188 C 242.617188 62.617188 159.34375 83.328125 199.15625 129.230469 Z M 199.144531 129.238281 "/></g><g clip-rule="nonzero" clip-path="url(#84e28e0e67)"><path style=" stroke:none;fill-rule:nonzero;fill:#000000;fill-opacity:1;" d="M 178.183594 342.117188 L 178.183594 302.316406 C 178.183594 292.160156 172.5 285.253906 158.28125 285.253906 C 150.15625 285.253906 143.25 287.285156 137.152344 289.722656 L 139.183594 297.035156 C 143.648438 295.410156 149.339844 293.789062 155.429688 293.789062 C 163.148438 293.789062 166.804688 297.035156 166.804688 303.539062 L 166.804688 308.820312 L 162.742188 308.820312 C 143.246094 308.820312 134.308594 316.132812 134.308594 327.949219 C 134.308594 337.699219 140.402344 343.378906 151.367188 343.378906 C 158.273438 343.378906 163.554688 340.136719 168.429688 336.070312 L 169.238281 342.164062 L 178.179688 342.164062 Z M 166.808594 329.121094 C 162.746094 332.78125 158.285156 334.804688 154.21875 334.804688 C 148.933594 334.804688 145.691406 331.5625 145.691406 325.863281 C 145.691406 320.164062 148.933594 316.113281 161.941406 316.113281 L 166.808594 316.113281 Z M 216.363281 342.117188 L 202.148438 342.117188 L 185.089844 286.46875 L 197.273438 286.46875 L 207.839844 320.589844 L 210.277344 330.746094 C 215.558594 316.121094 219.617188 301.09375 221.242188 286.46875 L 233.429688 286.46875 C 230.183594 304.75 224.488281 324.648438 216.367188 342.117188 Z M 282.167969 342.117188 L 282.167969 302.316406 C 282.167969 292.160156 276.480469 285.253906 262.261719 285.253906 C 254.140625 285.253906 247.230469 287.285156 241.136719 289.722656 L 242.757812 297.035156 C 247.632812 295.410156 253.320312 293.789062 259.410156 293.789062 C 267.128906 293.789062 270.785156 297.035156 270.785156 303.539062 L 270.785156 308.820312 L 266.722656 308.820312 C 247.222656 308.820312 238.285156 316.132812 238.285156 327.949219 C 238.285156 337.699219 243.972656 343.378906 254.9375 343.378906 C 262.25 343.378906 267.53125 340.136719 272.40625 336.070312 L 273.21875 342.164062 L 282.160156 342.164062 Z M 270.792969 329.121094 C 266.730469 332.78125 262.265625 334.804688 258.199219 334.804688 C 252.917969 334.804688 249.671875 331.5625 249.671875 325.863281 C 249.671875 320.164062 252.917969 316.113281 265.921875 316.113281 L 270.796875 316.113281 L 270.796875 329.113281 Z M 121.726562 351.453125 C 118.484375 356.328125 113.605469 359.980469 107.511719 362.015625 L 102.230469 355.515625 C 106.292969 353.078125 110.351562 349.421875 111.976562 346.175781 C 113.601562 343.332031 114.007812 339.273438 114.007812 329.925781 L 114.007812 266.570312 L 126.195312 266.570312 L 126.195312 329.121094 C 126.195312 341.714844 124.976562 346.585938 121.726562 351.460938 Z M 121.726562 351.453125 "/></g></g></svg>