<svg xmlns="http://www.w3.org/2000/svg" xmlns:xlink="http://www.w3.org/1999/xlink" width="500" zoomAndPan="magnify" viewBox="0 0 375 374.999991" height="500" preserveAspectRatio="xMidYMid meet" version="1.2"><defs><clipPath id="dd484bde5e"><path d="M 155 10.585938 L 244 10.585938 L 244 155 L 155 155 Z M 155 10.585938 "/></clipPath><clipPath id="1a02fb246f"><path d="M 101 267 L 284 267 L 284 364.585938 L 101 364.585938 Z M 101 267 "/></clipPath></defs><g id="ef1e1b1254"><path style=" stroke:none;fill-rule:nonzero;fill:#4e7896;fill-opacity:1;" d="M 155.949219 201.148438 C 155.949219 201.148438 146.480469 206.902344 162.535156 208.550781 C 181.921875 211.019531 192.171875 210.605469 213.570312 206.496094 C 213.570312 206.496094 219.332031 210.203125 227.152344 213.078125 C 178.992188 233.644531 118.078125 211.84375 155.949219 201.148438 Z M 149.773438 174.410156 C 149.773438 174.410156 139.480469 182.230469 155.535156 183.871094 C 176.523438 185.925781 192.992188 186.339844 221.394531 180.585938 C 221.394531 180.585938 225.101562 184.699219 231.273438 186.757812 C 173.238281 204.03125 108.203125 188.398438 149.773438 174.417969 Z M 263.378906 221.304688 C 263.378906 221.304688 270.375 227.058594 255.554688 231.585938 C 227.976562 239.8125 139.894531 242.285156 115.199219 231.585938 C 106.558594 227.882812 123.019531 222.53125 128.367188 221.714844 C 133.71875 220.480469 136.597656 220.480469 136.597656 220.480469 C 127.132812 213.898438 73.621094 234.054688 109.433594 239.855469 C 207.804688 255.902344 288.894531 232.863281 263.371094 221.34375 Z M 160.472656 146.4375 C 160.472656 146.4375 115.605469 157.136719 144.417969 160.835938 C 156.765625 162.476562 181.046875 162.066406 203.6875 160.421875 C 222.210938 158.777344 240.773438 155.484375 240.773438 155.484375 C 240.773438 155.484375 234.1875 158.367188 229.660156 161.242188 C 183.933594 173.183594 96.261719 167.832031 121.371094 155.492188 C 142.78125 145.210938 160.472656 146.4375 160.472656 146.4375 Z M 240.734375 191.273438 C 286.839844 167.417969 265.429688 144.382812 250.613281 147.265625 C 246.902344 148.085938 245.257812 148.90625 245.257812 148.90625 C 245.257812 148.90625 246.496094 146.4375 249.375 145.621094 C 278.601562 135.335938 301.652344 176.472656 239.910156 192.511719 C 239.910156 192.511719 240.324219 192.101562 240.734375 191.277344 Z M 165 256.257812 C 209.453125 259.140625 277.367188 254.617188 279.015625 233.632812 C 279.015625 233.632812 275.730469 241.859375 242.386719 248.03125 C 204.519531 255.019531 157.589844 254.199219 130.015625 249.671875 C 130.015625 249.671875 135.777344 254.609375 165.003906 256.253906 Z M 165 256.257812 "/><g clip-rule="nonzero" clip-path="url(#dd484bde5e)"><path style=" stroke:none;fill-rule:nonzero;fill:#f58219;fill-opacity:1;" d="M 212.707031 10.703125 C 212.707031 10.703125 238.226562 36.613281 188.421875 75.683594 C 148.496094 107.355469 179.363281 125.457031 188.421875 146.019531 C 164.960938 125.042969 148.089844 106.53125 159.609375 89.253906 C 176.527344 63.765625 223.03125 51.425781 212.707031 10.703125 Z M 199.539062 128.75 C 211.472656 142.324219 196.25 154.664062 196.25 154.664062 C 196.25 154.664062 226.707031 139.039062 212.714844 119.699219 C 199.953125 101.191406 190.074219 92.140625 243.585938 61.285156 C 243.585938 61.285156 159.207031 82.257812 199.546875 128.742188 Z M 199.539062 128.75 "/></g><g clip-rule="nonzero" clip-path="url(#1a02fb246f)"><path style=" stroke:none;fill-rule:nonzero;fill:#4e7896;fill-opacity:1;" d="M 178.296875 344.316406 L 178.296875 304.011719 C 178.296875 293.730469 172.535156 286.738281 158.125 286.738281 C 149.894531 286.738281 142.894531 288.792969 136.71875 291.261719 L 138.773438 298.664062 C 143.300781 297.023438 149.066406 295.378906 155.238281 295.378906 C 163.0625 295.378906 166.765625 298.664062 166.765625 305.25 L 166.765625 310.601562 L 162.648438 310.601562 C 142.890625 310.601562 133.835938 318.003906 133.835938 329.972656 C 133.835938 339.84375 140.007812 345.597656 151.121094 345.597656 C 158.117188 345.597656 163.46875 342.3125 168.410156 338.195312 L 169.230469 344.363281 L 178.292969 344.363281 Z M 166.769531 331.15625 C 162.652344 334.863281 158.128906 336.914062 154.007812 336.914062 C 148.65625 336.914062 145.371094 333.628906 145.371094 327.859375 C 145.371094 322.089844 148.65625 317.988281 161.835938 317.988281 L 166.769531 317.988281 Z M 216.984375 344.316406 L 202.578125 344.316406 L 185.292969 287.96875 L 197.640625 287.96875 L 208.34375 322.519531 L 210.816406 332.804688 C 216.167969 317.996094 220.28125 302.773438 221.929688 287.96875 L 234.277344 287.96875 C 230.988281 306.476562 225.214844 326.628906 216.988281 344.316406 Z M 283.664062 344.316406 L 283.664062 304.011719 C 283.664062 293.730469 277.902344 286.738281 263.496094 286.738281 C 255.265625 286.738281 248.265625 288.792969 242.085938 291.261719 L 243.730469 298.664062 C 248.667969 297.023438 254.433594 295.378906 260.605469 295.378906 C 268.425781 295.378906 272.128906 298.664062 272.128906 305.25 L 272.128906 310.601562 L 268.011719 310.601562 C 248.253906 310.601562 239.199219 318.003906 239.199219 329.972656 C 239.199219 339.84375 244.960938 345.597656 256.074219 345.597656 C 263.484375 345.597656 268.835938 342.3125 273.773438 338.195312 L 274.597656 344.363281 L 283.65625 344.363281 Z M 272.140625 331.15625 C 268.019531 334.863281 263.5 336.914062 259.378906 336.914062 C 254.023438 336.914062 250.738281 333.628906 250.738281 327.859375 C 250.738281 322.089844 254.023438 317.988281 267.203125 317.988281 L 272.144531 317.988281 L 272.144531 331.148438 Z M 121.085938 353.773438 C 117.796875 358.707031 112.855469 362.40625 106.679688 364.46875 L 101.328125 357.886719 C 105.445312 355.417969 109.558594 351.71875 111.207031 348.429688 C 112.851562 345.546875 113.265625 341.4375 113.265625 331.972656 L 113.265625 267.816406 L 125.613281 267.816406 L 125.613281 331.15625 C 125.613281 343.910156 124.378906 348.84375 121.085938 353.78125 Z M 121.085938 353.773438 "/></g></g></svg>