<svg xmlns="http://www.w3.org/2000/svg" xmlns:xlink="http://www.w3.org/1999/xlink" width="500" zoomAndPan="magnify" viewBox="0 0 375 374.999991" height="500" preserveAspectRatio="xMidYMid meet" version="1.2"><defs><clipPath id="c44c40a456"><path d="M 37.5 37.5 L 337.5 37.5 L 337.5 337.5 L 37.5 337.5 Z M 37.5 37.5 "/></clipPath></defs><g id="d73a3e47a0"><g clip-rule="nonzero" clip-path="url(#c44c40a456)"><path style="fill-rule:nonzero;fill:#ffffff;fill-opacity:1;stroke-width:96;stroke-linecap:butt;stroke-linejoin:miter;stroke:#000000;stroke-opacity:1;stroke-miterlimit:4;" d="M -0.00000271667 0.00000328333 L 400.000024 0.00000328333 L 400.000024 400.00003 L -0.00000271667 400.00003 Z M -0.00000271667 0.00000328333 " transform="matrix(0.75,0,0,0.75,37.500002,37.499998)"/></g><g style="fill:#000000;fill-opacity:1;"><g transform="translate(126.836012, 282.353873)"><path style="stroke:none" d="M 34.453125 1.40625 C 26.109375 1.40625 19.175781 -0.171875 13.65625 -3.328125 C 8.132812 -6.492188 4.117188 -10.742188 1.609375 -16.078125 L 12.578125 -29.40625 L 14.265625 -29.40625 C 16.054688 -25.09375 18.597656 -21.691406 21.890625 -19.203125 C 25.191406 -16.710938 29.019531 -15.46875 33.375 -15.46875 C 38.257812 -15.46875 41.890625 -16.890625 44.265625 -19.734375 C 46.640625 -22.585938 47.828125 -27.222656 47.828125 -33.640625 L 47.828125 -98.359375 L 67.203125 -98.359375 L 67.203125 -33.296875 C 67.203125 -21.410156 64.5 -12.65625 59.09375 -7.03125 C 53.695312 -1.40625 45.484375 1.40625 34.453125 1.40625 Z M 34.453125 1.40625 "/></g></g><g style="fill:#000000;fill-opacity:1;"><g transform="translate(206.212685, 282.353873)"><path style="stroke:none" d="M 43.59375 1.40625 C 36.78125 1.40625 30.710938 0.566406 25.390625 -1.109375 C 20.078125 -2.796875 15.648438 -5.003906 12.109375 -7.734375 C 8.566406 -10.472656 5.851562 -13.476562 3.96875 -16.75 L 14.671875 -29.796875 L 16.34375 -29.796875 C 19.300781 -25.398438 23.054688 -21.898438 27.609375 -19.296875 C 32.171875 -16.703125 37.5 -15.40625 43.59375 -15.40625 C 48.800781 -15.40625 52.726562 -16.503906 55.375 -18.703125 C 58.019531 -20.898438 59.34375 -23.925781 59.34375 -27.78125 C 59.34375 -30.113281 58.914062 -32.066406 58.0625 -33.640625 C 57.207031 -35.210938 55.789062 -36.554688 53.8125 -37.671875 C 51.84375 -38.796875 49.175781 -39.757812 45.8125 -40.5625 L 33.171875 -43.453125 C 24.328125 -45.472656 17.738281 -48.828125 13.40625 -53.515625 C 9.082031 -58.203125 6.921875 -64.289062 6.921875 -71.78125 C 6.921875 -77.34375 8.3125 -82.234375 11.09375 -86.453125 C 13.875 -90.671875 17.921875 -93.941406 23.234375 -96.265625 C 28.554688 -98.597656 34.914062 -99.765625 42.3125 -99.765625 C 49.894531 -99.765625 56.390625 -98.765625 61.796875 -96.765625 C 67.203125 -94.773438 71.765625 -91.71875 75.484375 -87.59375 L 65.859375 -74.40625 L 64.1875 -74.40625 C 61.40625 -77.320312 58.21875 -79.507812 54.625 -80.96875 C 51.039062 -82.425781 46.9375 -83.15625 42.3125 -83.15625 C 36.976562 -83.15625 32.921875 -82.210938 30.140625 -80.328125 C 27.359375 -78.441406 25.96875 -75.84375 25.96875 -72.53125 C 25.96875 -69.425781 26.941406 -66.953125 28.890625 -65.109375 C 30.847656 -63.273438 34.222656 -61.84375 39.015625 -60.8125 L 51.9375 -58.125 C 61.488281 -56.101562 68.414062 -52.679688 72.71875 -47.859375 C 77.03125 -43.046875 79.1875 -36.757812 79.1875 -29 C 79.1875 -22.851562 77.863281 -17.503906 75.21875 -12.953125 C 72.570312 -8.398438 68.578125 -4.867188 63.234375 -2.359375 C 57.898438 0.148438 51.351562 1.40625 43.59375 1.40625 Z M 43.59375 1.40625 "/></g></g></g></svg>