<svg xmlns="http://www.w3.org/2000/svg" xmlns:xlink="http://www.w3.org/1999/xlink" width="500" zoomAndPan="magnify" viewBox="0 0 375 374.999991" height="500" preserveAspectRatio="xMidYMid meet" version="1.2"><g id="6f7cb2e0f6"><path style=" stroke:none;fill-rule:nonzero;fill:#38b6ff;fill-opacity:1;" d="M 262.332031 22.070312 C 256.214844 21.867188 249.8125 22.933594 243.390625 25.015625 C 230.546875 29.175781 217.089844 37.289062 203.28125 48.523438 C 197.871094 52.925781 192.410156 57.960938 186.929688 63.296875 C 181.570312 58.09375 176.222656 53.183594 170.929688 48.875 C 157.128906 37.652344 143.710938 29.550781 130.898438 25.398438 C 118.085938 21.242188 105.335938 21.113281 94.867188 27.160156 C 84.394531 33.203125 78.132812 44.300781 75.324219 57.476562 C 72.515625 70.648438 72.8125 86.335938 75.632812 103.898438 C 76.613281 109.996094 78.023438 116.398438 79.617188 122.917969 C 73.632812 124.730469 67.824219 126.636719 62.4375 128.742188 C 46.175781 135.089844 32.722656 142.6875 22.925781 151.730469 C 13.128906 160.769531 6.804688 171.742188 6.804688 183.792969 C 6.804688 195.839844 13.128906 206.796875 22.925781 215.835938 C 32.722656 224.878906 46.175781 232.492188 62.4375 238.839844 C 68.199219 241.09375 74.433594 243.117188 80.875 245.035156 C 78.558594 253.6875 76.679688 262.085938 75.402344 270.046875 C 72.578125 287.621094 72.28125 303.3125 75.09375 316.511719 C 77.910156 329.714844 84.175781 340.875 94.699219 346.949219 C 105.21875 353.027344 118.023438 352.875 130.867188 348.714844 C 143.707031 344.550781 157.148438 336.453125 170.960938 325.21875 C 176.320312 320.855469 181.746094 315.882812 187.175781 310.597656 C 192.628906 315.910156 198.078125 320.914062 203.464844 325.296875 C 217.265625 336.519531 230.699219 344.621094 243.511719 348.773438 C 256.324219 352.929688 269.058594 353.058594 279.527344 347.011719 C 290 340.96875 296.261719 329.871094 299.070312 316.699219 C 301.878906 303.523438 301.570312 287.835938 298.746094 270.273438 C 297.464844 262.292969 295.585938 253.882812 293.261719 245.203125 C 299.910156 243.238281 306.347656 241.160156 312.28125 238.839844 C 328.539062 232.492188 341.992188 224.878906 351.789062 215.835938 C 361.585938 206.796875 367.914062 195.839844 367.914062 183.792969 C 367.914062 171.742188 361.585938 160.769531 351.789062 151.730469 C 341.992188 142.6875 328.539062 135.089844 312.28125 128.742188 C 306.816406 126.605469 300.914062 124.675781 294.839844 122.839844 C 296.445312 116.28125 297.867188 109.835938 298.855469 103.699219 C 301.679688 86.121094 301.976562 70.417969 299.160156 57.214844 C 296.34375 44.011719 290.066406 32.867188 279.542969 26.792969 C 274.28125 23.753906 268.449219 22.277344 262.332031 22.070312 Z M 261.613281 38.042969 C 265.453125 38.144531 268.726562 39.058594 271.527344 40.675781 C 277.132812 43.914062 281.273438 50.207031 283.484375 60.570312 C 285.691406 70.933594 285.617188 84.933594 283.007812 101.167969 C 282.113281 106.726562 280.816406 112.621094 279.34375 118.65625 C 263.296875 114.792969 245.714844 111.925781 226.976562 110.242188 C 217.5625 97.199219 207.886719 85.332031 198.132812 74.792969 C 203.289062 69.757812 208.410156 65.050781 213.414062 60.984375 C 226.167969 50.605469 238.246094 43.546875 248.324219 40.277344 C 253.363281 38.644531 257.773438 37.9375 261.613281 38.042969 Z M 112.707031 38.085938 C 116.566406 37.980469 120.984375 38.6875 126.039062 40.324219 C 136.148438 43.601562 148.246094 50.660156 161.011719 61.046875 C 165.910156 65.03125 170.921875 69.636719 175.972656 74.546875 C 166.148438 85.171875 156.402344 97.160156 146.929688 110.320312 C 128.253906 112.035156 110.734375 114.929688 94.757812 118.808594 C 93.296875 112.800781 92.015625 106.933594 91.125 101.398438 C 88.515625 85.148438 88.449219 71.132812 90.667969 60.738281 C 92.882812 50.347656 97.058594 44.019531 102.714844 40.753906 C 105.539062 39.121094 108.84375 38.195312 112.707031 38.085938 Z M 187.175781 86.089844 C 193.566406 93.042969 199.960938 100.65625 206.300781 108.847656 C 200.070312 108.585938 193.761719 108.433594 187.359375 108.433594 C 180.824219 108.433594 174.398438 108.59375 168.046875 108.863281 C 174.390625 100.664062 180.78125 93.050781 187.175781 86.089844 Z M 187.359375 124.28125 C 198.027344 124.28125 208.429688 124.71875 218.546875 125.460938 C 225.507812 135.457031 232.308594 146.066406 238.792969 157.292969 C 244.488281 167.15625 249.640625 177.007812 254.332031 186.734375 C 249.59375 196.589844 244.351562 206.570312 238.578125 216.574219 C 233.496094 225.375 228.1875 233.738281 222.792969 241.800781 C 211.363281 242.753906 199.523438 243.285156 187.359375 243.285156 C 174.898438 243.285156 162.792969 242.722656 151.113281 241.722656 C 145.808594 233.777344 140.589844 225.527344 135.585938 216.863281 C 129.828125 206.886719 124.609375 196.9375 119.878906 187.101562 C 124.632812 177.210938 129.871094 167.191406 135.664062 157.15625 C 142.113281 145.988281 148.894531 135.441406 155.816406 125.492188 C 166.042969 124.734375 176.5625 124.28125 187.359375 124.28125 Z M 238.761719 127.421875 C 251.691406 129.035156 263.832031 131.277344 275.128906 133.964844 C 271.777344 144.960938 267.644531 156.445312 262.640625 168.296875 C 259.390625 162.03125 256.023438 155.746094 252.386719 149.445312 C 247.980469 141.816406 243.402344 134.53125 238.761719 127.421875 Z M 135.128906 127.542969 C 130.582031 134.523438 126.113281 141.660156 121.792969 149.140625 C 118.109375 155.519531 114.675781 161.890625 111.386719 168.234375 C 106.425781 156.453125 102.320312 145.035156 98.988281 134.105469 C 110.207031 131.410156 122.28125 129.175781 135.128906 127.542969 Z M 290.65625 138.136719 C 296.21875 139.816406 301.589844 141.574219 306.515625 143.5 C 321.507812 149.351562 333.363281 156.285156 341.046875 163.375 C 348.730469 170.46875 352.066406 177.230469 352.066406 183.792969 C 352.066406 190.351562 348.730469 197.113281 341.046875 204.207031 C 333.363281 211.296875 321.507812 218.230469 306.515625 224.082031 C 301.042969 226.222656 295.023438 228.160156 288.769531 230 C 284.308594 216.199219 278.613281 201.800781 271.835938 187.101562 C 279.628906 170.226562 285.921875 153.773438 290.65625 138.136719 Z M 83.800781 138.210938 C 88.476562 153.691406 94.691406 169.984375 102.375 186.6875 C 95.554688 201.472656 89.828125 215.953125 85.347656 229.832031 C 79.3125 228.039062 73.5 226.152344 68.199219 224.082031 C 53.210938 218.230469 41.355469 211.296875 33.667969 204.207031 C 25.984375 197.113281 22.648438 190.351562 22.648438 183.792969 C 22.648438 177.230469 25.984375 170.46875 33.667969 163.375 C 41.355469 156.285156 53.210938 149.351562 68.199219 143.5 C 73.050781 141.605469 78.332031 139.871094 83.800781 138.210938 Z M 187.359375 147.746094 C 165.78125 147.746094 148.125 165.402344 148.125 186.980469 C 148.125 208.554688 165.78125 226.214844 187.359375 226.214844 C 208.933594 226.214844 226.59375 208.554688 226.59375 186.980469 C 226.59375 165.402344 208.933594 147.746094 187.359375 147.746094 Z M 187.359375 163.4375 C 200.453125 163.4375 210.898438 173.882812 210.898438 186.980469 C 210.898438 200.074219 200.453125 210.519531 187.359375 210.519531 C 174.265625 210.519531 163.816406 200.074219 163.816406 186.980469 C 163.816406 173.882812 174.265625 163.4375 187.359375 163.4375 Z M 262.839844 205.523438 C 266.953125 215.261719 270.53125 224.792969 273.535156 233.984375 C 264.097656 236.171875 254.050781 238.015625 243.480469 239.46875 C 246.523438 234.617188 249.527344 229.671875 252.460938 224.589844 C 256.140625 218.21875 259.554688 211.855469 262.839844 205.523438 Z M 111.570312 205.539062 C 114.871094 211.910156 118.308594 218.300781 122.007812 224.710938 C 124.90625 229.730469 127.863281 234.628906 130.867188 239.425781 C 120.328125 237.964844 110.3125 236.113281 100.90625 233.921875 C 103.894531 224.761719 107.476562 215.25 111.570312 205.539062 Z M 96.382812 249.15625 C 110.585938 252.519531 125.976562 255.105469 142.300781 256.789062 C 153.199219 272.550781 164.542969 286.707031 175.972656 299.089844 C 170.863281 304.070312 165.800781 308.742188 160.84375 312.773438 C 148.085938 323.152344 135.996094 330.195312 125.917969 333.464844 C 115.839844 336.730469 108.316406 336.300781 102.714844 333.066406 C 97.109375 329.832031 92.984375 323.535156 90.773438 313.171875 C 88.566406 302.808594 88.625 288.824219 91.234375 272.589844 C 92.417969 265.222656 94.183594 257.335938 96.382812 249.15625 Z M 278.074219 249.21875 C 280.285156 257.445312 282.0625 265.367188 283.253906 272.773438 C 285.863281 289.023438 285.929688 303.027344 283.710938 313.417969 C 281.496094 323.808594 277.335938 330.152344 271.679688 333.417969 C 266.027344 336.683594 258.449219 337.125 248.339844 333.847656 C 238.234375 330.570312 226.132812 323.496094 213.367188 313.109375 C 208.375 309.050781 203.277344 304.355469 198.132812 299.332031 C 209.632812 286.90625 221.0625 272.671875 232.035156 256.820312 C 248.398438 255.148438 263.832031 252.578125 278.074219 249.21875 Z M 162.773438 258.398438 C 170.832031 258.835938 178.996094 259.132812 187.359375 259.132812 C 195.445312 259.132812 203.34375 258.855469 211.144531 258.445312 C 203.167969 269.203125 195.039062 278.984375 186.945312 287.792969 C 178.851562 278.964844 170.738281 269.167969 162.773438 258.398438 Z M 162.773438 258.398438 "/></g></svg>