<svg xmlns="http://www.w3.org/2000/svg" xmlns:xlink="http://www.w3.org/1999/xlink" width="500" zoomAndPan="magnify" viewBox="0 0 375 374.999991" height="500" preserveAspectRatio="xMidYMid meet" version="1.2"><g id="75f431c565"><path style=" stroke:none;fill-rule:nonzero;fill:#000000;fill-opacity:1;" d="M 262.332031 22.074219 C 256.214844 21.867188 249.8125 22.933594 243.390625 25.019531 C 230.546875 29.183594 217.089844 37.304688 203.28125 48.550781 C 197.871094 52.957031 192.410156 57.996094 186.929688 63.339844 C 181.570312 58.128906 176.222656 53.214844 170.929688 48.902344 C 157.128906 37.667969 143.710938 29.558594 130.898438 25.402344 C 118.085938 21.242188 105.335938 21.113281 94.867188 27.164062 C 84.394531 33.214844 78.132812 44.324219 75.324219 57.511719 C 72.515625 70.695312 72.8125 86.398438 75.632812 103.976562 C 76.613281 110.085938 78.023438 116.492188 79.617188 123.015625 C 73.632812 124.832031 67.824219 126.738281 62.4375 128.847656 C 46.175781 135.203125 32.722656 142.808594 22.925781 151.859375 C 13.128906 160.90625 6.804688 171.890625 6.804688 183.949219 C 6.804688 196.011719 13.128906 206.980469 22.925781 216.027344 C 32.722656 225.078125 46.175781 232.699219 62.4375 239.054688 C 68.199219 241.308594 74.433594 243.335938 80.875 245.253906 C 78.558594 253.917969 76.679688 262.320312 75.402344 270.289062 C 72.578125 287.882812 72.28125 303.589844 75.09375 316.804688 C 77.910156 330.019531 84.175781 341.191406 94.699219 347.273438 C 105.21875 353.351562 118.023438 353.203125 130.867188 349.035156 C 143.707031 344.867188 157.148438 336.761719 170.960938 325.519531 C 176.320312 321.152344 181.746094 316.171875 187.175781 310.882812 C 192.628906 316.199219 198.078125 321.210938 203.464844 325.59375 C 217.265625 336.832031 230.699219 344.9375 243.511719 349.097656 C 256.324219 353.253906 269.058594 353.382812 279.527344 347.332031 C 290 341.28125 296.261719 330.175781 299.070312 316.988281 C 301.878906 303.800781 301.570312 288.101562 298.746094 270.519531 C 297.464844 262.53125 295.585938 254.113281 293.261719 245.421875 C 299.910156 243.457031 306.347656 241.375 312.28125 239.054688 C 328.539062 232.699219 341.992188 225.078125 351.789062 216.027344 C 361.585938 206.980469 367.914062 196.011719 367.914062 183.949219 C 367.914062 171.890625 361.585938 160.90625 351.789062 151.859375 C 341.992188 142.808594 328.539062 135.203125 312.28125 128.847656 C 306.816406 126.710938 300.914062 124.777344 294.839844 122.941406 C 296.445312 116.375 297.867188 109.921875 298.855469 103.777344 C 301.679688 86.183594 301.976562 70.464844 299.160156 57.25 C 296.34375 44.035156 290.066406 32.878906 279.542969 26.796875 C 274.28125 23.757812 268.449219 22.277344 262.332031 22.074219 Z M 261.613281 38.058594 C 265.453125 38.164062 268.726562 39.078125 271.527344 40.695312 C 277.132812 43.933594 281.273438 50.238281 283.484375 60.609375 C 285.691406 70.980469 285.617188 84.996094 283.007812 101.246094 C 282.113281 106.8125 280.816406 112.710938 279.34375 118.75 C 263.296875 114.886719 245.714844 112.015625 226.976562 110.328125 C 217.5625 97.273438 207.886719 85.394531 198.132812 74.84375 C 203.289062 69.808594 208.410156 65.09375 213.414062 61.023438 C 226.167969 50.636719 238.246094 43.566406 248.324219 40.296875 C 253.363281 38.664062 257.773438 37.953125 261.613281 38.058594 Z M 112.707031 38.105469 C 116.566406 37.996094 120.984375 38.703125 126.039062 40.34375 C 136.148438 43.625 148.246094 50.6875 161.011719 61.085938 C 165.910156 65.074219 170.921875 69.683594 175.972656 74.601562 C 166.148438 85.234375 156.402344 97.234375 146.929688 110.40625 C 128.253906 112.125 110.734375 115.019531 94.757812 118.90625 C 93.296875 112.890625 92.015625 107.019531 91.125 101.476562 C 88.515625 85.210938 88.449219 71.179688 90.667969 60.777344 C 92.882812 50.375 97.058594 44.042969 102.714844 40.773438 C 105.539062 39.140625 108.84375 38.210938 112.707031 38.105469 Z M 187.175781 86.152344 C 193.566406 93.113281 199.960938 100.734375 206.300781 108.933594 C 200.070312 108.671875 193.761719 108.519531 187.359375 108.519531 C 180.824219 108.519531 174.398438 108.679688 168.046875 108.949219 C 174.390625 100.742188 180.78125 93.121094 187.175781 86.152344 Z M 187.359375 124.382812 C 198.027344 124.382812 208.429688 124.820312 218.546875 125.5625 C 225.507812 135.570312 232.308594 146.1875 238.792969 157.425781 C 244.488281 167.300781 249.640625 177.160156 254.332031 186.894531 C 249.59375 196.761719 244.351562 206.753906 238.578125 216.765625 C 233.496094 225.578125 228.1875 233.945312 222.792969 242.015625 C 211.363281 242.972656 199.523438 243.503906 187.359375 243.503906 C 174.898438 243.503906 162.792969 242.941406 151.113281 241.941406 C 145.808594 233.988281 140.589844 225.726562 135.585938 217.058594 C 129.828125 207.070312 124.609375 197.109375 119.878906 187.265625 C 124.632812 177.363281 129.871094 167.335938 135.664062 157.289062 C 142.113281 146.109375 148.894531 135.554688 155.816406 125.59375 C 166.042969 124.835938 176.5625 124.382812 187.359375 124.382812 Z M 238.761719 127.527344 C 251.691406 129.140625 263.832031 131.386719 275.128906 134.078125 C 271.777344 145.082031 267.644531 156.578125 262.640625 168.441406 C 259.390625 162.167969 256.023438 155.878906 252.386719 149.570312 C 247.980469 141.933594 243.402344 134.640625 238.761719 127.527344 Z M 135.128906 127.648438 C 130.582031 134.632812 126.113281 141.777344 121.792969 149.265625 C 118.109375 155.652344 114.675781 162.027344 111.386719 168.378906 C 106.425781 156.589844 102.320312 145.15625 98.988281 134.214844 C 110.207031 131.519531 122.28125 129.285156 135.128906 127.648438 Z M 290.65625 138.25 C 296.21875 139.933594 301.589844 141.691406 306.515625 143.621094 C 321.507812 149.480469 333.363281 156.417969 341.046875 163.515625 C 348.730469 170.613281 352.066406 177.382812 352.066406 183.949219 C 352.066406 190.519531 348.730469 197.285156 341.046875 204.386719 C 333.363281 211.484375 321.507812 218.421875 306.515625 224.28125 C 301.042969 226.421875 295.023438 228.363281 288.769531 230.203125 C 284.308594 216.390625 278.613281 201.976562 271.835938 187.265625 C 279.628906 170.371094 285.921875 153.902344 290.65625 138.25 Z M 83.800781 138.328125 C 88.476562 153.824219 94.691406 170.128906 102.375 186.851562 C 95.554688 201.648438 89.828125 216.144531 85.347656 230.035156 C 79.3125 228.246094 73.5 226.355469 68.199219 224.28125 C 53.210938 218.421875 41.355469 211.484375 33.667969 204.386719 C 25.984375 197.285156 22.648438 190.519531 22.648438 183.949219 C 22.648438 177.382812 25.984375 170.613281 33.667969 163.515625 C 41.355469 156.417969 53.210938 149.480469 68.199219 143.621094 C 73.050781 141.722656 78.332031 139.988281 83.800781 138.328125 Z M 187.359375 147.867188 C 165.78125 147.867188 148.125 165.546875 148.125 187.140625 C 148.125 208.738281 165.78125 226.414062 187.359375 226.414062 C 208.933594 226.414062 226.59375 208.738281 226.59375 187.140625 C 226.59375 165.546875 208.933594 147.867188 187.359375 147.867188 Z M 187.359375 163.578125 C 200.453125 163.578125 210.898438 174.035156 210.898438 187.140625 C 210.898438 200.25 200.453125 210.707031 187.359375 210.707031 C 174.265625 210.707031 163.816406 200.25 163.816406 187.140625 C 163.816406 174.035156 174.265625 163.578125 187.359375 163.578125 Z M 262.839844 205.703125 C 266.953125 215.453125 270.53125 224.992188 273.535156 234.191406 C 264.097656 236.382812 254.050781 238.230469 243.480469 239.683594 C 246.523438 234.824219 249.527344 229.875 252.460938 224.789062 C 256.140625 218.414062 259.554688 212.042969 262.839844 205.703125 Z M 111.570312 205.71875 C 114.871094 212.097656 118.308594 218.496094 122.007812 224.910156 C 124.90625 229.933594 127.863281 234.839844 130.867188 239.640625 C 120.328125 238.175781 110.3125 236.324219 100.90625 234.132812 C 103.894531 224.960938 107.476562 215.441406 111.570312 205.71875 Z M 96.382812 249.378906 C 110.585938 252.75 125.976562 255.335938 142.300781 257.019531 C 153.199219 272.796875 164.542969 286.96875 175.972656 299.363281 C 170.863281 304.347656 165.800781 309.027344 160.84375 313.0625 C 148.085938 323.449219 135.996094 330.5 125.917969 333.773438 C 115.839844 337.042969 108.316406 336.609375 102.714844 333.371094 C 97.109375 330.132812 92.984375 323.832031 90.773438 313.460938 C 88.566406 303.085938 88.625 289.089844 91.234375 272.835938 C 92.417969 265.464844 94.183594 257.570312 96.382812 249.378906 Z M 278.074219 249.441406 C 280.285156 257.675781 282.0625 265.609375 283.253906 273.019531 C 285.863281 289.289062 285.929688 303.304688 283.710938 313.707031 C 281.496094 324.109375 277.335938 330.457031 271.679688 333.726562 C 266.027344 336.992188 258.449219 337.433594 248.339844 334.15625 C 238.234375 330.875 226.132812 323.792969 213.367188 313.398438 C 208.375 309.335938 203.277344 304.632812 198.132812 299.605469 C 209.632812 287.167969 221.0625 272.921875 232.035156 257.050781 C 248.398438 255.375 263.832031 252.804688 278.074219 249.441406 Z M 162.773438 258.632812 C 170.832031 259.070312 178.996094 259.367188 187.359375 259.367188 C 195.445312 259.367188 203.34375 259.089844 211.144531 258.675781 C 203.167969 269.445312 195.039062 279.238281 186.945312 288.054688 C 178.851562 279.21875 170.738281 269.410156 162.773438 258.632812 Z M 162.773438 258.632812 "/></g></svg>