<svg xmlns="http://www.w3.org/2000/svg" xmlns:xlink="http://www.w3.org/1999/xlink" width="500" zoomAndPan="magnify" viewBox="0 0 375 374.999991" height="500" preserveAspectRatio="xMidYMid meet" version="1.2"><defs><clipPath id="775a1c00ab"><path d="M 37.5 37.5 L 337.5 37.5 L 337.5 337.5 L 37.5 337.5 Z M 37.5 37.5 "/></clipPath></defs><g id="9bf0e0f0e5"><rect x="0" width="375" y="0" height="374.999991" style="fill:#ffffff;fill-opacity:1;stroke:none;"/><rect x="0" width="375" y="0" height="374.999991" style="fill:#ffffff;fill-opacity:1;stroke:none;"/><g clip-rule="nonzero" clip-path="url(#775a1c00ab)"><path style=" stroke:none;fill-rule:nonzero;fill:#070135;fill-opacity:1;" d="M 262.5 37.5 L 262.5 295.3125 L 37.5 261.75 L 262.5 337.5 L 337.5 306.28125 L 337.5 68.671875 Z M 183.75 81.375 L 114.84375 149.53125 L 73.359375 118.265625 L 56.25 123.984375 L 98.4375 165.703125 L 56.25 207.421875 L 73.359375 213.140625 L 114.84375 181.875 L 183.75 249.984375 L 225 232.5 L 225 98.90625 Z M 183.75 129.984375 L 183.75 201.5625 L 136.40625 165.703125 Z M 183.75 129.984375 "/></g></g></svg>